<svg width="73" height="77" viewBox="0 0 73 77" fill="none" xmlns="http://www.w3.org/2000/svg">
<path fill-rule="evenodd" clip-rule="evenodd" d="M27.1181 57.8618C27.0545 57.8592 26.8106 58.0318 26.0972 58.5364L26.0541 58.5669C26.161 56.7335 27.1546 54.8982 27.9753 53.3822C28.1201 53.1148 28.2595 52.8573 28.3876 52.6115C33.259 43.2857 42.762 44.0886 46.8896 52.3015C48.2564 55.0208 48.634 56.3313 49.1375 58.0789C49.3638 58.8643 49.6155 59.738 49.9939 60.8675C50.185 61.438 50.3589 62.0394 50.535 62.6489C51.214 64.9979 51.9271 67.465 53.7948 68.7286C55.4804 68.2745 57.1773 65.2846 57.961 63.6988C60.9541 57.6384 62.5313 51.8056 64.0841 45.252C65.5598 39.0273 65.8839 32.0672 65.6941 25.6132C65.4386 16.9823 62.9466 8.81547 53.3751 7.26445C51.8017 7.00891 50.3958 7.16755 49.019 7.3229C48.5775 7.37272 48.139 7.4222 47.6989 7.45758C46.5138 7.55291 45.7567 7.86177 45.054 8.14841C44.4501 8.39476 43.8864 8.62471 43.1258 8.6886C43.2292 9.94275 43.548 10.2457 44.0388 10.7119C44.2328 10.8963 44.4537 11.1062 44.6988 11.4105L47.1865 15.0547C47.284 15.2073 47.5074 15.5354 47.7027 15.8221L47.7031 15.8226L47.7032 15.8227C47.8823 16.0858 48.0377 16.3138 48.05 16.3393C49.0275 18.3329 48.0058 20.8458 45.6479 21.7395C44.0023 22.3637 42.6335 20.9826 41.8328 19.8467C41.6372 19.5698 41.326 19.0394 41.1433 18.6949C39.0067 14.6628 35.0688 10.1563 30.5701 8.74625C22.4816 6.2091 12.5479 8.86608 8.98103 17.9221C8.79068 18.4056 8.75792 18.5803 8.70152 18.8811C8.66827 19.0584 8.62682 19.2795 8.54005 19.6334C8.42747 20.0906 8.33434 20.3569 8.2352 20.6404L8.23519 20.6404L8.23518 20.6404C8.17083 20.8244 8.10395 21.0157 8.02758 21.2711C7.73956 22.2344 7.61688 23.115 7.45229 24.2966L7.40391 24.643C6.93088 27.995 6.96312 28.4364 7.05444 29.6864C7.09044 30.1792 7.13563 30.7978 7.16265 31.7701C7.27976 35.9393 7.99626 42.1513 9.17507 46.0579L13.2513 58.5665C13.2516 58.5667 13.2518 58.5668 13.2521 58.5669C13.5532 58.6643 14.0564 59.6916 14.7164 61.0388C15.5892 62.8204 16.7361 65.1615 18.052 66.6513L20.0958 68.5905C20.1124 68.554 20.1591 68.6099 20.2043 68.6641C20.2251 68.6891 20.2457 68.7137 20.2628 68.7287C23.1108 67.207 24.0129 64.2319 24.7804 61.7003C25.0926 60.6707 25.3826 59.7143 25.7722 58.9591C25.8467 58.8145 25.8929 58.7104 25.9189 58.6371C25.9543 58.6223 25.999 58.5996 26.0547 58.5669C26.7992 58.0402 27.0524 57.8602 27.1181 57.8618ZM25.8499 58.5366C25.909 58.4687 25.991 58.4343 25.9189 58.6371C25.7547 58.7059 25.7908 58.6045 25.8499 58.5366ZM11.84 57.889C11.7652 57.8771 11.8178 57.9442 11.8951 58.0428C12.0197 58.2019 12.2087 58.443 12.0325 58.5682C12.117 59.9088 12.2037 60.0135 12.474 60.3394C12.7199 60.6358 13.1177 61.1155 13.8039 62.8757L19.1802 70.0824C19.5571 70.4596 20.0063 70.6606 20.4594 70.7147C20.0065 70.6605 19.5576 70.4595 19.1809 70.0825L13.8043 62.8759C13.1183 61.1158 12.7205 60.6361 12.4747 60.3395C12.2044 60.0136 12.1176 59.9089 12.0331 58.5683C12.2094 58.4432 12.0204 58.202 11.8957 58.043C11.8186 57.9446 11.766 57.8776 11.84 57.889ZM24.4384 74.4865C27.8367 72.6138 31.1392 67.0931 31.8459 62.5722L31.8472 62.5713C32.1618 62.2879 32.3364 61.717 32.5012 61.1781L32.5013 61.178C32.5586 60.9907 32.6147 60.8073 32.6751 60.6411C32.7969 60.3033 32.891 60.0096 32.9814 59.7274L32.9814 59.7273C33.1229 59.2854 33.2555 58.8715 33.4715 58.3604C33.5682 58.1316 33.666 57.8945 33.7653 57.6536L33.7653 57.6536C34.2743 56.4194 34.8246 55.0849 35.491 54.2418C36.4644 53.0078 38.2428 52.506 39.5573 53.8569C41.0489 55.3893 42.5961 60.605 43.0956 62.9086C43.8348 66.3109 46.12 71.7529 48.9987 73.9024C49.2483 74.0886 49.4181 74.2196 49.5341 74.3091C49.7189 74.4516 49.7676 74.4892 49.7855 74.4779C49.7919 74.4738 49.7944 74.4635 49.7977 74.4495C49.8104 74.3964 49.8357 74.2901 50.1378 74.2714C51.1442 74.3434 51.5904 74.5743 51.913 74.7413C52.1775 74.8782 52.3589 74.9721 52.6979 74.9003C52.3582 74.9726 52.1766 74.8786 51.9118 74.7416C51.5892 74.5746 51.143 74.3437 50.1367 74.2716C50.7671 75.2858 51.3679 75.4142 53.2965 75.8266L53.4607 75.8617C54.9266 76.176 55.6088 75.9613 57.0305 75.3846C61.505 73.5681 64.735 66.0213 66.5547 61.6029L67.8607 57.9959C68.2487 56.8888 68.6185 55.7628 68.9995 54.5275C69.0674 54.3085 69.1313 54.1286 69.1924 53.9562L69.1925 53.9561L69.1925 53.9561C69.3048 53.6394 69.4081 53.3484 69.5106 52.8882L70.8622 47.1723C70.9754 46.5127 71.1217 45.9316 71.2671 45.3543L71.2671 45.3542C71.4442 44.6509 71.6199 43.953 71.7328 43.1257C72.9188 34.4473 73.8639 26.1638 71.7271 17.3629C69.6418 8.77234 64.378 2.40893 55.6088 0.390833C53.6293 -0.0646697 49.9197 -0.0431099 47.3921 0.0649216C46.2008 0.115827 45.3614 0.402144 44.4705 0.706074C44.1499 0.815434 43.8226 0.927075 43.4698 1.03085C43.2581 1.09279 43.0189 1.14285 42.7652 1.19596C42.4407 1.26388 42.0923 1.3368 41.747 1.44595C41.3393 1.57378 41.0508 1.7042 40.7659 1.83295C40.5304 1.93943 40.2973 2.04476 40.0015 2.14657C39.8015 2.21529 39.6476 2.26694 39.5244 2.30828C39.288 2.38761 39.1647 2.429 39.0457 2.48031C38.9158 2.53628 38.7911 2.60404 38.5303 2.74572C38.4594 2.78425 38.3784 2.82825 38.2846 2.87896C36.3315 3.93848 35.9648 3.73254 34.9752 3.1767C34.5994 2.96564 34.1338 2.70413 33.4574 2.4423C25.9485 -0.467064 17.5788 0.509077 11.0491 4.61609C8.53573 6.19752 5.82383 9.15295 4.19678 11.8601C-0.163518 19.1159 -0.493287 27.7135 0.402965 35.8283C0.614516 37.7454 0.590449 38.3527 0.573286 38.7858C0.545743 39.4807 0.535981 39.7271 1.54637 44.2185C3.83001 54.3804 6.82856 62.7186 12.5163 71.0107C13.8751 72.9929 15.1654 74.5383 17.3948 75.3227C17.7518 75.4484 18.0319 75.5567 18.264 75.6466L18.2641 75.6466C19.2272 76.0192 19.3659 76.0729 20.7576 75.7235C21.2813 75.592 21.6669 75.5083 21.98 75.4403C22.8794 75.2449 23.1806 75.1795 24.4384 74.4865ZM30.6915 63.3831L30.6923 63.3826C30.1443 62.0516 30.4608 61.4981 30.8326 60.8479C31.0193 60.5215 31.2199 60.1708 31.332 59.6851C31.6935 58.1152 32.0929 57.4154 32.4979 56.7058C32.7868 56.1996 33.0786 55.6885 33.3614 54.853C33.9327 53.1661 34.3236 52.7862 34.9014 52.2247C35.239 51.8967 35.6405 51.5066 36.179 50.7575L36.1779 50.7575C35.6394 51.5067 35.238 51.8968 34.9003 52.2249C34.3225 52.7864 33.9317 53.1662 33.3605 54.8532C33.0776 55.6886 32.7859 56.1997 32.497 56.7058C32.0919 57.4155 31.6924 58.1153 31.3308 59.6856C31.2187 60.1711 31.0182 60.5218 30.8315 60.8481C30.4597 61.4983 30.1431 62.0518 30.6915 63.3831ZM44.8932 63.6968C44.8712 63.7305 44.8514 63.7608 44.8287 63.7643C44.8509 63.76 44.8704 63.7301 44.892 63.697L44.892 63.697C44.9193 63.6552 44.95 63.6082 44.9937 63.6008C44.9506 63.6089 44.9202 63.6554 44.8932 63.6968Z" fill="white"/>
</svg>
