<svg width="196" height="93" viewBox="0 0 196 93" fill="none" xmlns="http://www.w3.org/2000/svg">
<g clip-path="url(#clip0_22:20)">
<path fill-rule="evenodd" clip-rule="evenodd" d="M41.3694 56.5829C42.209 55.989 41.6304 56.3955 41.8788 56.5835C41.9386 57.5267 41.7908 56.7937 41.4273 58.3061C41.2631 58.9883 40.9386 59.2608 40.6726 59.6997C40.3186 60.2847 40.5242 60.7249 39.8167 61.5151C39.7979 61.5361 39.7727 61.5666 39.7526 61.5875L39.5287 61.7965C39.1778 62.0125 38.6891 62.0055 38.3407 61.6568L35.9718 58.4814C35.3372 56.8534 35.2624 57.7116 35.1913 56.5835C35.3863 56.445 34.5669 55.9845 35.7284 56.5829L33.9323 51.0713C33.4129 49.35 33.0972 46.6129 33.0456 44.7759C33.0035 43.261 32.8613 43.6949 33.1519 41.6356C33.2361 41.036 33.2877 40.6148 33.4267 40.1499C33.5122 39.864 33.5707 39.7605 33.6525 39.4283C33.7556 39.0078 33.7135 39.0129 33.8468 38.6743C35.4184 34.6841 39.7953 33.5134 43.3592 34.6313C45.3414 35.2526 47.0765 37.2382 48.0179 39.0148C48.0984 39.1666 48.2355 39.4003 48.3217 39.5223C48.6745 40.0228 49.2776 40.6313 50.0027 40.3563C51.0416 39.9625 51.4918 38.8553 51.0611 37.9769C51.0497 37.9534 50.763 37.5399 50.6806 37.4109L49.5845 35.8052C49.2034 35.332 48.955 35.377 48.8914 34.6059C49.6165 34.545 49.9354 34.1416 50.9064 34.0635C51.705 33.9993 52.4918 33.8297 53.4074 33.9784C57.6247 34.6618 58.7227 38.2602 58.8353 42.0631C58.9189 44.9068 58.7761 47.9735 58.1259 50.7162C57.4417 53.6038 56.7468 56.1738 55.428 58.8441C55.0827 59.5428 54.335 60.8602 53.5923 61.0603C52.5559 60.3591 52.3264 58.8168 51.9176 57.5966C51.3799 55.9915 51.4227 55.5589 50.5498 53.8223C48.7311 50.2036 44.544 49.8498 42.3976 53.9589C42.0209 54.6811 41.4248 55.6326 41.3694 56.5829ZM43.9214 58.3474L43.4127 58.705C43.0498 57.824 43.5466 57.716 43.6944 57.0758C43.9673 55.8905 44.2893 55.8308 44.5887 54.9466C44.9874 53.769 45.1867 54.037 45.8301 53.142C46.9646 53.0855 46.4011 52.7552 47.8607 54.2308C48.655 55.0336 48.0343 55.3385 49.1097 56.0404L49.2241 57.0084C49.6901 57.5166 49.3071 57.6589 49.4719 58.3544C49.7228 59.4164 49.592 58.4211 49.8649 58.9915C50.0328 59.3428 49.9134 59.581 49.8341 59.9748C49.8662 60.0053 49.9197 59.9989 49.9366 60.0593L50.1165 60.2174C50.5831 60.7148 50.1624 60.7681 50.8303 61.6587C51.5648 62.6381 51.3296 62.8083 52.1842 63.0091C52.9081 63.1787 53.2753 62.7772 53.464 63.6379C52.7144 64.019 53.0005 63.5757 51.9805 63.5026C52.266 63.9619 52.5377 64.0089 53.4451 64.2032C54.091 64.3417 54.3916 64.2471 55.018 63.993C56.9895 63.1926 58.4127 59.8674 59.2145 57.9206L59.7899 56.3313C59.9609 55.8435 60.1238 55.3474 60.2917 54.8031C60.3766 54.5293 60.4471 54.394 60.5169 54.0808L61.1124 51.5623C61.2231 50.9176 61.4055 50.4431 61.496 49.7793C62.0186 45.9555 62.435 42.3057 61.4935 38.4279C60.5747 34.6428 58.2554 31.839 54.3916 30.9498C53.5194 30.7491 51.8849 30.7586 50.7712 30.8062C50.0574 30.8367 49.6304 31.059 49.043 31.2318C48.8304 31.294 48.555 31.329 48.2839 31.4147C47.9557 31.5176 47.8028 31.6243 47.5148 31.7234C47.023 31.8924 47.1639 31.827 46.7583 32.0461C45.571 32.6902 45.7143 32.2729 44.6314 31.8537C41.3229 30.5718 37.6351 31.0019 34.758 32.8115C33.6506 33.5083 32.4557 34.8105 31.7388 36.0033C29.8176 39.2003 29.6723 42.9885 30.0672 46.564C30.31 48.7643 29.8484 47.0487 30.571 50.2608C31.5772 54.7383 32.8984 58.4122 35.4045 62.0658C36.0032 62.9392 36.5717 63.6201 37.554 63.9657C38.364 64.2509 38.2747 64.3334 39.0357 64.1423C39.9293 63.918 39.9104 64.0089 40.6575 63.5973C42.1549 62.7721 43.6101 60.3394 43.9214 58.3474Z" fill="#000629"/>
<path fill-rule="evenodd" clip-rule="evenodd" d="M26.0576 82.3595L26.1909 86.2951C26.2356 87.2333 26.2123 87.9422 26.3375 88.578C26.5966 89.896 26.7846 90.1812 26.8569 91.9979C26.8726 92.386 26.7965 93.2409 27.6531 92.9354C28.2555 92.7201 27.9417 92.5295 28.97 91.949C29.6202 91.5812 29.1869 91.6727 29.7749 91.2693L31.4647 89.9913C31.615 89.8433 31.6471 89.7887 31.8131 89.6655C31.9967 89.5283 32.1257 89.4984 32.3055 89.3485C32.6929 89.0258 32.5017 88.9814 33.0639 88.6225C33.957 88.0533 33.3394 88.5704 33.9645 87.9041C34.3462 87.4976 34.4135 87.6786 34.789 87.2448C35.0883 86.8992 35.1594 86.8281 35.5115 86.4819L37.2611 84.5865C37.3894 84.422 37.2932 84.5128 37.4214 84.3413C37.5774 84.1342 37.5019 84.2384 37.6082 84.1228C38.1019 83.5854 39.4892 81.993 39.4892 81.4099C39.4892 80.842 39.3056 80.4641 39.1741 79.9648L38.7691 78.4747C38.5289 77.5968 38.327 76.1042 38.012 75.441C37.4001 75.4918 37.8 75.3959 37.351 75.723C37.1611 75.8615 37.0152 75.9911 36.8221 76.1385L34.5437 77.7715C34.1022 78.072 33.9412 78.5077 33.3105 78.5611C33.2488 77.8128 32.43 73 32.2357 72.5916C31.3653 73.0571 30.6044 73.4935 29.7252 73.9902C29.1813 74.2977 27.5091 75.1526 27.1871 75.4963C26.3123 76.4287 26.0576 81.0358 26.0576 82.3595Z" fill="#00ADE8"/>
<path fill-rule="evenodd" clip-rule="evenodd" d="M0 27.6869C0 28.2179 0.202499 27.7021 0.268531 28.5005C0.833263 28.5634 0.68925 28.665 0.939543 29.1802C1.28794 29.8986 1.25587 29.501 1.60552 29.9996L2.78844 31.7895C3.11232 32.1668 3.13684 32.1834 3.43682 32.6267L4.51597 34.1143C4.92537 34.6161 5.17 34.4586 5.23855 35.2837C5.92906 35.3422 5.64732 35.4438 6.49882 36.3172C7.35661 37.1963 7.74526 37.3119 7.79054 37.862C8.54834 37.9255 8.99924 38.8351 9.62623 39.2638L10.5538 39.9638C11.006 40.2909 11.0028 40.2865 11.6462 40.1436C12.653 39.9193 16.4005 38.9621 17.0583 38.9469C17.0093 38.353 16.6539 38.1243 16.3948 37.7178L14.3686 34.7444C14.1441 34.4726 14.0711 34.4497 13.9686 34.0629L20.0134 33.2492C19.9794 32.8363 17.7155 28.545 17.5425 28.2833C17.2237 27.7999 16.8162 27.5808 16.2609 27.4213C14.1466 26.8141 9.49417 26.4343 7.49937 26.5486L4.62477 26.6902C3.90785 26.7925 3.77704 26.9818 3.09219 27.0116C2.27214 27.0472 0 26.9303 0 27.6869H0Z" fill="#00ADE8"/>
<path fill-rule="evenodd" clip-rule="evenodd" d="M20.6845 60.3818C20.121 60.0807 20.2914 60.1728 19.5173 60.068C19.177 60.0216 18.4815 59.9155 18.1092 59.8628C17.069 59.7142 16.3496 59.5681 15.1774 59.5681C15.2465 58.729 18.184 55.0976 18.401 54.277L15.6339 53.544C13.6083 53.0345 12.8618 52.5238 11.6009 53.3782L7.05668 57.3354C6.46302 57.9954 5.87942 58.4959 5.3367 59.1254C4.83674 59.7059 5.3128 59.4239 4.44495 60.2592C4.34684 60.3538 4.36948 60.3189 4.24811 60.4675L2.92872 62.5268C2.20866 63.9484 -0.186108 65.3324 1.37225 65.9282C2.30047 66.2833 1.45841 65.7193 2.52058 65.9638L3.74249 66.1118C4.00347 66.1271 4.94302 66.2223 5.29896 66.2986C6.1731 66.4866 5.78823 66.3303 6.53848 66.3926C8.99991 66.5952 8.893 66.7343 11.4922 66.6593L14.3906 66.3735C14.5548 66.3468 14.9434 66.3208 15.1076 66.3106C15.7522 66.2731 17.0583 66.1201 17.503 65.8514C17.8696 65.6297 18.0734 65.1876 18.262 64.8541C19.0003 63.5507 19.8575 61.6286 20.6845 60.3818Z" fill="#00ADE8"/>
<path fill-rule="evenodd" clip-rule="evenodd" d="M25.9226 5.84462L25.893 6.85076C25.5604 9.95938 25.5176 12.0974 25.8981 15.2308C26.2584 18.1978 25.9937 17.5137 28.079 18.7263L31.6982 20.7678L32.5044 15.2054C33.1893 15.3667 34.503 16.4669 35.1117 16.9134C35.5897 17.2634 35.9507 17.4381 36.4003 17.783C36.628 17.9577 36.7431 18.0517 37.0072 18.255C37.4197 18.5719 37.1996 18.5516 37.7423 18.5973C37.7574 17.9221 38.2429 16.5457 38.4146 15.8851C39.2114 12.8177 39.768 12.7752 37.3046 9.94985C36.9858 9.58398 37.0217 9.43344 36.7034 9.06503L35.2922 7.50564C34.7426 6.9562 34.2936 6.50013 33.7465 5.94625C32.7176 4.90517 32.5918 5.00172 32.1655 4.55899L31.9736 4.34557C31.5227 3.86283 30.4417 3.17365 29.8462 2.83128L27.9715 1.3335C26.2993 -0.273528 26.6395 1.26935 26.3634 3.03327L25.9226 5.84462Z" fill="#00ADE8"/>
<path fill-rule="evenodd" clip-rule="evenodd" d="M59.5027 77.7466C59.0789 77.6323 58.6198 77.255 58.2387 76.9882C57.7645 76.656 57.4507 76.4185 56.9759 76.0932C56.5149 75.7782 56.1923 75.5203 55.7137 75.1976C55.2754 74.9029 54.9025 74.4913 54.3981 74.3554C54.1743 74.8273 52.9209 79.3359 52.9209 79.9177C52.9209 80.478 53.0303 80.6888 53.2662 81.0611C53.6642 81.6899 53.9793 82.2692 54.4975 82.8021C54.9434 83.2601 54.8754 83.1769 55.2106 83.7098C55.6049 84.3386 56.2338 84.7261 56.7011 85.3245L63.5382 91.1714C64.3174 91.724 64.7501 92.2633 65.1438 92.2633C65.5016 92.2633 65.4035 92.3909 65.6431 91.6719L65.6544 91.0901C65.5915 90.6956 65.5582 91.1301 65.6481 90.6124L66.4399 84.2421C66.4631 83.565 66.3525 84.3888 66.3525 83.7162C66.3525 83.1553 66.6719 83.5847 66.4977 82.6421C66.4405 82.3333 66.465 82.6281 66.4506 82.3854L66.1518 76.9908C66.0475 76.569 66.05 76.8332 65.9997 76.414C65.7871 74.6412 65.0375 74.9461 62.3503 73.2425C59.9027 71.6901 60.2549 72.1385 60.0794 73.4458L59.5027 77.7466Z" fill="#00ADE8"/>
<path fill-rule="evenodd" clip-rule="evenodd" d="M54.3977 17.7828L57.7767 15.2268C58.2703 14.8197 58.2515 14.5592 58.9646 14.3916C59.0376 15.2764 59.3614 16.3905 59.5199 17.3579C59.6583 18.2014 60.0199 19.4756 60.0394 20.3611C60.5211 20.3204 60.916 19.9793 61.3065 19.7411L63.6661 18.3259C65.3037 17.4328 65.554 17.2302 65.803 14.5154C66.1376 10.8688 66.2451 9.08073 65.7049 5.27722C65.4559 3.52536 65.0213 1.7932 64.8748 0.0108604C64.3201 0.0108604 64.4503 -0.060916 64.0862 0.164576L62.4781 1.52515C61.6996 2.15653 61.182 2.43728 60.3135 3.27256C59.4564 4.09767 58.1339 5.00472 57.1773 6.07438L54.3788 9.2173C54.1952 9.44596 54.17 9.49805 53.9575 9.74133L52.723 11.6069C52.64 11.9257 54.165 17.2925 54.3977 17.7828Z" fill="#00ADE8"/>
<path fill-rule="evenodd" clip-rule="evenodd" d="M46.2045 89.2785C46.6453 88.9799 46.8359 88.5429 47.0836 88.132L47.7094 87.0001C47.8848 86.6926 48.0433 86.4754 48.2269 86.166C49.1564 84.6028 49.9847 82.6236 50.6984 80.9295L51.7902 76.8764C51.8719 76.3943 51.8958 76.137 51.9883 75.7197C52.2379 74.5929 52.6046 74.6094 51.5443 73.5747L49.9645 71.6431C48.5772 69.6505 48.1509 68.3699 47.1742 66.5927C46.9321 66.1519 47.149 66.3551 46.7415 66.0801C46.3642 66.3354 45.7347 67.9774 45.2347 68.899C44.9121 69.4936 44.804 69.6924 44.4002 70.2266C43.6921 71.1635 43.4626 71.671 42.557 72.7064L40.9527 74.3509C40.4477 74.934 40.9408 76.3657 41.1175 76.9158C41.3118 77.5211 41.3445 78.1163 41.4621 78.7381C41.6206 79.5747 41.8507 79.6274 42.0602 80.3052L43.1921 83.5027C43.416 84.0731 45.9014 89.0536 46.2045 89.2785Z" fill="#00B45D"/>
<path fill-rule="evenodd" clip-rule="evenodd" d="M16.2517 77.3401C17.1422 77.2652 19.9954 76.3289 21.0305 75.9262L25.3893 73.952C25.8238 73.6732 26.3407 73.4242 26.7313 73.1371C26.9872 72.9484 27.0558 72.829 27.3212 72.6473C27.6941 72.392 27.7916 72.4822 28.2871 72.1309L28.5167 71.9556C30.6215 70.4216 30.7265 70.4928 30.6309 69.0598C30.546 67.7926 31.0058 65.0949 31.3108 63.9249L31.7717 62.2201C31.9296 61.7532 32.1013 60.9294 32.1013 60.3818C31.5284 60.3945 29.9404 61.205 29.0411 61.4972C28.8506 61.5595 28.5192 61.6643 28.3223 61.7221C27.8651 61.8555 28.0331 61.7793 27.6262 61.8453C27.0457 61.9387 27.2665 61.9247 26.7998 62.081C25.6238 62.4741 23.3624 62.6082 22.4254 62.6228C21.8669 62.6317 21.9782 62.7035 21.3223 63.4682C20.9041 63.956 20.8626 64.294 20.5859 64.8949L20.2595 65.5148C20.096 65.8006 20.0413 65.8375 19.8331 66.1697C19.2401 67.118 19.4822 67.0697 19.208 67.7094C19.0759 68.0181 18.9451 68.14 18.8112 68.3935C18.0836 69.7776 16.9076 74.3471 16.6196 75.8125C16.551 76.1637 16.4862 76.266 16.3315 76.6173C16.1083 77.1241 16.1441 76.8275 16.2517 77.3401Z" fill="#00B45D"/>
<path fill-rule="evenodd" clip-rule="evenodd" d="M3.49219 46.4083C3.51797 46.724 3.47332 46.7679 3.98083 47.1356L6.55482 48.6061C7.30319 49.0984 7.49499 49.0787 8.2333 49.4884L9.14769 49.9216C9.46841 50.0734 9.71996 50.2023 10.0728 50.3433C12.455 51.2986 14.2196 51.6721 16.6747 52.2235C19.1179 52.7716 18.0954 52.5074 19.5525 51.3698C19.8109 51.1678 19.8267 51.1271 20.0468 50.9188C21.624 49.4204 26.1607 47.229 26.4607 46.8155C26.1683 46.3747 23.8043 45.5953 22.2969 44.5085C21.8567 44.1915 21.4435 44.027 20.9932 43.6548C19.6242 42.5223 20.0939 43.0545 18.7041 41.6254C18.1627 41.0689 18.1702 40.8689 17.4287 40.9343C15.6308 41.0925 15.9433 41.3192 13.8894 41.7149L9.98032 43.1937C9.68286 43.3207 9.50552 43.3524 9.18856 43.4795C8.11318 43.9108 7.3296 44.4272 6.35924 44.9626C5.43731 45.4714 4.56254 46.1568 3.49219 46.4083Z" fill="#00B45D"/>
<path fill-rule="evenodd" clip-rule="evenodd" d="M23.3708 30.8067L24.0928 30.867C25.4763 31.0131 27.0246 31.198 28.3283 31.6445L29.2024 31.8497C29.6772 31.9615 29.8483 32.1438 30.2482 32.2714C33.0769 33.1734 31.694 32.1514 31.2815 30.5494L30.7733 28.7569C30.4784 27.1092 30.3539 26.7262 30.1784 24.8715C30.125 24.3004 30.2369 24.2992 30.1671 23.6799C30.1074 23.1558 30.0866 22.8446 30.0866 22.2602C29.1596 21.7641 29.5087 21.5323 28.2842 21.0203C28.0396 20.9181 28.2453 21.0292 27.9755 20.8571L26.3511 19.7861C25.4499 19.2342 26.0102 19.7849 24.7072 19.0112C24.5619 18.9248 24.4412 18.8632 24.2663 18.7673C23.5972 18.3995 23.6595 18.5539 22.9306 18.2312C19.934 16.9043 17.3267 16.5346 15.9834 15.8835C15.9834 18.1677 17.7726 22.588 18.5838 24.6536C19.2416 26.3292 19.5064 26.3743 20.09 27.3373C20.3132 27.7051 20.3396 27.9458 20.5723 28.3428C22.4476 31.5441 22.5608 30.8067 23.3708 30.8067Z" fill="#00B45D"/>
<path fill-rule="evenodd" clip-rule="evenodd" d="M45.2643 26.8725H45.8013C45.8875 25.8295 47.3767 23.4673 47.8936 22.6098C48.2332 22.047 48.4017 21.7866 48.7564 21.3102C49.0533 20.9113 49.3111 20.5905 49.6369 20.1649C49.9067 19.8137 49.8287 19.8969 50.1475 19.5952C50.1676 19.5761 50.1985 19.5507 50.2186 19.531L50.6726 19.04C51.1172 18.575 51.5725 18.556 51.0921 16.6447L48.713 9.41561L45.6674 3.81006C44.5574 4.56022 42.6343 9.10436 41.9513 10.6383C41.1049 12.5388 40.498 15.3299 40.1433 17.3599C39.8666 18.9435 39.6817 18.5249 40.6647 19.5799L42.0966 21.3896C42.3186 21.6868 42.3846 21.7065 42.5714 21.9955L45.2643 26.8725Z" fill="#00B45D"/>
<path fill-rule="evenodd" clip-rule="evenodd" d="M43.9219 58.3473C44.1087 58.179 44.1835 57.7807 44.2867 57.4968C44.4244 57.115 44.4816 56.861 44.6376 56.4919C44.8986 55.8745 45.1765 55.1212 45.5274 54.6772C45.9563 54.1335 46.7399 53.9124 47.3191 54.5076C47.9763 55.1828 48.658 57.4809 48.8781 58.4959C49.2038 59.995 50.2107 62.3928 51.4791 63.3399C52.0646 63.7769 51.6533 63.5228 51.981 63.5025C53.001 63.5755 52.7149 64.0189 53.4645 63.6378C53.2758 62.7771 52.9086 63.1785 52.1847 63.0089C51.3301 62.8082 51.5653 62.638 50.8308 61.6585C50.1629 60.768 50.5836 60.7146 50.117 60.2173L49.9371 60.0591C49.9201 59.9988 49.8667 60.0051 49.8346 59.9747C49.9139 59.5808 50.0333 59.3426 49.8654 58.9914C49.5925 58.421 49.7233 59.4163 49.4724 58.3543C49.3076 57.6588 49.6906 57.5165 49.2246 57.0083L49.1101 56.0403C48.0348 55.3384 48.6555 55.0335 47.8612 54.2306C46.4016 52.7551 46.965 53.0854 45.8306 53.1419C45.1872 54.0369 44.9879 53.7689 44.5891 54.9465C44.2898 55.8307 43.9678 55.8904 43.6949 57.0756C43.5471 57.7159 43.0503 57.8239 43.4131 58.7049L43.9219 58.3473Z" fill="#010514"/>
<path fill-rule="evenodd" clip-rule="evenodd" d="M41.3697 56.5829C41.076 56.755 41.4797 56.3009 41.2452 56.7557C40.6515 57.9066 40.583 60.1171 38.8177 61.0603C38.7938 61.0394 38.7548 60.9759 38.7441 60.9994L37.8436 60.145C36.8254 58.9922 36.0368 56.6826 35.7287 56.5829C34.5671 55.9845 35.3866 56.4451 35.1916 56.5835C35.2627 57.7116 35.3375 56.8535 35.972 58.4815L38.341 61.6568C38.6894 62.0055 39.1781 62.0125 39.529 61.7965L39.7529 61.5876C39.773 61.5666 39.7981 61.5361 39.817 61.5151C40.5245 60.725 40.3188 60.2848 40.6729 59.6998C40.9389 59.2609 41.2634 58.9884 41.4276 58.3062C41.791 56.7938 41.9388 57.5268 41.8791 56.5835C41.6307 56.3955 42.2092 55.989 41.3697 56.5829Z" fill="#010514"/>
<path d="M73.1169 78.9642C73.2918 78.8582 73.5106 78.7635 73.7735 78.6797C74.0363 78.5965 74.3426 78.5552 74.6929 78.5552C74.9734 78.5552 75.2224 78.5876 75.44 78.6536C75.6576 78.7191 75.8412 78.8112 75.9915 78.9299C76.1418 79.0487 76.2569 79.1878 76.3368 79.3473C76.4173 79.5061 76.4569 79.6795 76.4569 79.8662C76.4569 80.1851 76.3619 80.448 76.172 80.6551C75.9815 80.8622 75.7387 81.0013 75.4438 81.0718V81.087C75.6041 81.1074 75.7551 81.1506 75.8978 81.216C76.0406 81.2814 76.1657 81.3653 76.2733 81.4663C76.3808 81.5672 76.467 81.6886 76.5324 81.8302C76.5971 81.9719 76.6298 82.1281 76.6298 82.3003C76.6298 82.5829 76.5657 82.8217 76.438 83.0167C76.3104 83.2111 76.1456 83.3693 75.9431 83.4906C75.74 83.6119 75.5148 83.6989 75.2671 83.7517C75.0193 83.805 74.7784 83.8317 74.5432 83.8317C74.2778 83.8317 74.0112 83.8025 73.7433 83.7459C73.476 83.6875 73.237 83.5979 73.0264 83.4779L73.2666 82.588C73.3219 82.6185 73.3943 82.6528 73.4848 82.6903C73.5748 82.7284 73.6747 82.7627 73.7848 82.7932C73.8949 82.823 74.0099 82.8484 74.1301 82.8687C74.2502 82.8891 74.3703 82.8992 74.4904 82.8992C74.7809 82.8992 75.008 82.8408 75.1734 82.7233C75.3388 82.607 75.4211 82.4419 75.4211 82.2278C75.4211 82.0856 75.3884 81.9706 75.3237 81.8804C75.2589 81.7921 75.1746 81.7229 75.0721 81.6721C74.9696 81.6206 74.8558 81.5863 74.7306 81.5685C74.6055 81.5507 74.4828 81.5418 74.3627 81.5418H73.8823V80.6926H74.3552C74.6155 80.6926 74.8319 80.6361 75.0048 80.5224C75.1771 80.4087 75.2633 80.2505 75.2633 80.0485C75.2633 79.8815 75.1973 79.7462 75.0646 79.6426C74.9319 79.5391 74.7432 79.4876 74.4979 79.4876C74.303 79.4876 74.1049 79.52 73.9049 79.5861C73.7049 79.6515 73.532 79.7201 73.3867 79.7906L73.1169 78.9642ZM78.0259 78.6308L78.7617 80.4652C78.8315 80.6475 78.8938 80.8165 78.9491 80.9733C79.0039 81.1302 79.0592 81.2865 79.1145 81.4434H79.1365C79.1718 81.3322 79.2108 81.1931 79.2529 81.0267C79.2957 80.8596 79.3497 80.6678 79.4145 80.4499L79.9623 78.6308H81.1634L80.2176 81.148C80.0623 81.5469 79.905 81.9274 79.7447 82.2888C79.5849 82.6502 79.4095 82.9494 79.2196 83.187C79.0542 83.3998 78.8642 83.5649 78.6485 83.6837C78.4335 83.8025 78.1756 83.8622 77.8756 83.8622C77.7455 83.8622 77.6367 83.8546 77.5493 83.8393C77.4618 83.8241 77.3826 83.8037 77.3128 83.7783L77.3952 82.8535C77.4405 82.8637 77.4927 82.8726 77.553 82.8802C77.6128 82.8878 77.6857 82.8916 77.7706 82.8916C77.9461 82.8916 78.092 82.8408 78.2096 82.7398C78.3272 82.6388 78.4089 82.5302 78.4536 82.4139C78.4787 82.3733 78.4875 82.3339 78.48 82.2964C78.4725 82.2583 78.4586 82.2189 78.4385 82.1789L76.7349 78.6308H78.0259ZM84.9838 78.6384V79.5861H82.762V80.4499C82.8476 80.4404 82.9463 80.4315 83.0601 80.4239C83.1727 80.4163 83.279 80.4125 83.379 80.4125C83.6355 80.4125 83.8909 80.4455 84.1437 80.5109C84.3971 80.5763 84.6185 80.6831 84.8103 80.8304C84.9851 80.9619 85.1266 81.1277 85.2354 81.3284C85.3429 81.5279 85.397 81.7692 85.397 82.0538C85.397 82.3066 85.353 82.5302 85.2656 82.722C85.1782 82.9145 85.0618 83.0771 84.9153 83.2086C84.7952 83.3197 84.6562 83.4131 84.499 83.4893C84.3399 83.5662 84.172 83.6272 83.9946 83.6723C83.8167 83.718 83.6305 83.751 83.4381 83.7707C83.245 83.791 83.0501 83.8012 82.8551 83.8012C82.5696 83.8012 82.3243 83.7936 82.1218 83.7783C81.9181 83.7631 81.7514 83.7459 81.6212 83.7256V78.6384H84.9838ZM82.7545 82.9069C82.8199 82.917 82.8897 82.9246 82.9652 82.9291C83.04 82.9342 83.1173 82.9367 83.1978 82.9367C83.3374 82.9367 83.4727 82.9145 83.6028 82.8687C83.733 82.823 83.8456 82.7576 83.9405 82.6718C84.016 82.6007 84.0758 82.5162 84.121 82.4178C84.1657 82.3193 84.1883 82.2069 84.1883 82.0805C84.1883 81.949 84.1644 81.8366 84.1173 81.7432C84.0695 81.6492 84.0034 81.5698 83.9179 81.5044C83.8179 81.4231 83.7003 81.3653 83.5651 81.3297C83.4305 81.2941 83.2953 81.2763 83.1601 81.2763C83.0953 81.2763 83.0287 81.2789 82.9614 81.284C82.8935 81.289 82.8249 81.2967 82.7545 81.3068V82.9069ZM88.332 78.5552C88.7219 78.5552 89.0659 78.6231 89.364 78.7597C89.6614 78.8963 89.9117 79.0817 90.1142 79.3168C90.3174 79.5518 90.4708 79.8262 90.5765 80.1393C90.6815 80.4525 90.7337 80.7866 90.7337 81.1404C90.7337 81.5596 90.6739 81.9363 90.5538 82.2698C90.4337 82.6032 90.2645 82.8853 90.0469 83.1152C89.8294 83.3451 89.5677 83.5217 89.2627 83.6456C88.9571 83.7694 88.6194 83.8317 88.249 83.8317C87.8742 83.8317 87.539 83.7644 87.2434 83.631C86.9485 83.4969 86.6994 83.3121 86.4963 83.0771C86.2938 82.8421 86.1391 82.567 86.0309 82.2507C85.9234 81.935 85.8699 81.5952 85.8699 81.2312C85.8699 80.8469 85.9284 80.4919 86.046 80.166C86.1636 79.8402 86.329 79.5569 86.5416 79.3168C86.7541 79.0767 87.012 78.8899 87.3145 78.7559C87.6176 78.6219 87.9566 78.5552 88.332 78.5552ZM88.3018 79.4724C88.1069 79.4724 87.9339 79.5162 87.7836 79.6051C87.6339 79.6934 87.5063 79.8148 87.4013 79.9691C87.2962 80.1228 87.2157 80.3064 87.161 80.5185C87.1057 80.7307 87.0786 80.9606 87.0786 81.2084C87.0786 81.4561 87.1069 81.6848 87.1648 81.8944C87.222 82.104 87.3038 82.285 87.4088 82.4368C87.5138 82.588 87.6427 82.7055 87.7949 82.7893C87.9478 82.8726 88.1194 82.9145 88.3094 82.9145C88.5043 82.9145 88.6772 82.87 88.8275 82.7817C88.9772 82.6928 89.1036 82.5715 89.2061 82.4178C89.3086 82.2634 89.3879 82.0805 89.4426 81.8677C89.4979 81.6555 89.5256 81.4256 89.5256 81.1779C89.5256 80.9505 89.4992 80.7332 89.4464 80.5262C89.3942 80.3191 89.3149 80.1368 89.2099 79.9799C89.1049 79.8237 88.976 79.6998 88.8238 79.6083C88.671 79.5175 88.4968 79.4724 88.3018 79.4724ZM92.3927 79.6083H91.0343V78.6384H94.9151V79.6083H93.5334V83.7485H92.3927V79.6083ZM98.533 81.5876H96.6715V82.8008H98.7506V83.7485H95.5301V78.6384H98.6456V79.5861H96.6715V80.6551H98.533V81.5876ZM102.203 83.7485L101.745 82.823C101.65 82.6464 101.569 82.4857 101.501 82.3415C101.434 82.198 101.365 82.0525 101.295 81.9058H101.28C101.225 82.0525 101.166 82.198 101.104 82.3415C101.041 82.4857 100.97 82.6464 100.89 82.823L100.469 83.7485H99.1632L100.627 81.1626L99.216 78.6384H100.53L100.972 79.5708C101.047 79.7277 101.115 79.8713 101.175 80.0028C101.235 80.1343 101.295 80.2734 101.355 80.4201H101.37C101.43 80.2581 101.486 80.1127 101.539 79.9837C101.592 79.8548 101.65 79.7176 101.715 79.5708L102.143 78.6384H103.45L102.023 81.1328L103.524 83.7485H102.203ZM105.281 78.6384V80.6018H107.173V78.6384H108.313V83.7485H107.173V81.6104H105.281V83.7485H104.14V78.6384H105.281ZM110.363 78.6384V80.1546C110.363 80.5643 110.359 80.9657 110.352 81.3602C110.344 81.754 110.328 82.123 110.302 82.4667H110.333C110.463 82.1637 110.607 81.8531 110.768 81.5342C110.928 81.216 111.083 80.9206 111.233 80.6475L112.322 78.6384H113.493V83.7485H112.442V82.2393C112.442 81.8455 112.447 81.4713 112.457 81.1175C112.467 80.7637 112.489 80.4201 112.524 80.0866H112.502C112.387 80.3896 112.253 80.7002 112.1 81.0191C111.948 81.3373 111.796 81.6327 111.646 81.9058L110.618 83.7485H109.312V78.6384H110.363ZM115.542 78.6384V80.147C115.542 80.4455 115.616 80.6653 115.763 80.8063C115.911 80.9479 116.12 81.0191 116.39 81.0191C116.52 81.0191 116.649 81 116.777 80.9619C116.904 80.9238 117.023 80.8774 117.133 80.8215V78.6384H118.274V83.8165H117.133V81.6784H117.111C116.926 81.7642 116.743 81.8289 116.563 81.8715C116.382 81.9147 116.188 81.9363 115.977 81.9363C115.747 81.9363 115.535 81.9045 115.343 81.8416C115.15 81.7781 114.984 81.6822 114.844 81.5533C114.704 81.4243 114.595 81.2604 114.517 81.0604C114.44 80.8609 114.401 80.6246 114.401 80.3515V78.6384H115.542ZM122.267 81.5876H120.406V82.8008H122.485V83.7485H119.265V78.6384H122.38V79.5861H120.406V80.6551H122.267V81.5876ZM126.997 83.6043C126.892 83.6596 126.726 83.7116 126.501 83.7593C126.276 83.8076 126.008 83.8317 125.698 83.8317C125.262 83.8317 124.879 83.7656 124.545 83.6348C124.211 83.5033 123.934 83.3235 123.713 83.0961C123.491 82.8687 123.323 82.5982 123.211 82.285C123.097 81.9719 123.04 81.6327 123.04 81.2693C123.04 80.8342 123.113 80.448 123.26 80.1089C123.406 79.7703 123.604 79.4864 123.853 79.2564C124.101 79.0259 124.396 78.8518 124.733 78.733C125.071 78.6143 125.43 78.5552 125.811 78.5552C126.111 78.5552 126.368 78.5787 126.583 78.627C126.799 78.6746 126.956 78.7267 127.056 78.7826L126.824 79.6998C126.709 79.649 126.571 79.6051 126.411 79.567C126.251 79.5289 126.068 79.5099 125.863 79.5099C125.638 79.5099 125.426 79.5442 125.229 79.6128C125.031 79.6807 124.86 79.7855 124.714 79.9272C124.569 80.0688 124.455 80.2454 124.373 80.4576C124.291 80.6704 124.249 80.9174 124.249 81.2007C124.249 81.7165 124.391 82.123 124.673 82.4216C124.956 82.7195 125.355 82.8687 125.87 82.8687C126.046 82.8687 126.219 82.8522 126.392 82.8192C126.565 82.7868 126.709 82.7474 126.824 82.7017L126.997 83.6043ZM128.88 78.6384V80.7612H128.978L130.374 78.6384H131.763L129.999 80.9054C130.324 80.986 130.572 81.1353 130.742 81.3526C130.912 81.5698 131.05 81.8328 131.155 82.1408C131.245 82.414 131.335 82.6858 131.425 82.9558C131.515 83.2264 131.62 83.4906 131.74 83.7485H130.51C130.424 83.5713 130.353 83.3883 130.295 83.1984C130.238 83.0091 130.179 82.8179 130.119 82.6261C130.074 82.4794 130.025 82.3441 129.973 82.2209C129.92 82.0964 129.854 81.989 129.774 81.8982C129.694 81.8073 129.6 81.7368 129.492 81.686C129.385 81.6352 129.253 81.6104 129.098 81.6104H128.88V83.7485H127.739V78.6384H128.88ZM133.55 82.4368L133.189 83.7485H132.003L133.55 78.6384H135.051L136.619 83.7485H135.388L134.998 82.4368H133.55ZM134.833 81.5723L134.517 80.4881C134.473 80.3362 134.429 80.1724 134.387 79.9952C134.344 79.8186 134.302 79.6541 134.263 79.5022H134.248C134.207 79.6541 134.168 79.8198 134.131 79.999C134.094 80.1787 134.055 80.3413 134.015 80.4881L133.714 81.5723H134.833ZM136.859 83.7485C136.915 83.6621 136.962 83.5713 137.002 83.4754C137.042 83.3794 137.079 83.2784 137.115 83.1717C137.165 83.0256 137.212 82.8802 137.257 82.736C137.303 82.5918 137.35 82.4514 137.4 82.3155C137.45 82.1789 137.509 82.0513 137.576 81.9325C137.644 81.8137 137.725 81.7089 137.82 81.6181C137.876 81.5622 137.939 81.5126 138.012 81.4701C138.084 81.4269 138.16 81.3881 138.241 81.3526V81.3297C138.101 81.3043 137.966 81.2605 137.835 81.1969C137.705 81.134 137.591 81.0502 137.494 80.9467C137.396 80.8431 137.318 80.7205 137.261 80.5789C137.203 80.4379 137.175 80.2734 137.175 80.0866C137.175 79.844 137.222 79.6325 137.317 79.4533C137.413 79.2736 137.541 79.1237 137.701 79.0024C137.896 78.8505 138.14 78.7457 138.431 78.6873C138.723 78.6295 139.03 78.6003 139.357 78.6003C139.637 78.6003 139.904 78.6104 140.157 78.6308C140.41 78.6511 140.63 78.6759 140.816 78.7064V83.7485H139.674V81.7387H139.397C139.177 81.7387 138.996 81.8048 138.856 81.9363C138.776 82.0119 138.706 82.1078 138.646 82.224C138.586 82.3403 138.533 82.4616 138.488 82.588C138.443 82.7144 138.403 82.8408 138.368 82.9672C138.333 83.0936 138.296 83.2098 138.255 83.3159C138.231 83.3921 138.206 83.4626 138.181 83.5281C138.155 83.5941 138.121 83.6672 138.076 83.7485H136.859ZM139.674 79.5099C139.635 79.4997 139.575 79.4902 139.498 79.48C139.42 79.4699 139.324 79.4648 139.209 79.4648C138.964 79.4648 138.754 79.5213 138.579 79.6337C138.403 79.7474 138.316 79.9348 138.316 80.1965C138.316 80.4277 138.408 80.6043 138.594 80.7282C138.779 80.8508 139.001 80.9124 139.262 80.9124C139.336 80.9124 139.411 80.9117 139.483 80.9092C139.555 80.9066 139.619 80.9003 139.674 80.8901V79.5099ZM147.158 78.6384V83.7485H146.017V79.5861H144.869V80.7987C144.869 81.1277 144.856 81.4358 144.831 81.7241C144.806 82.0119 144.76 82.2748 144.692 82.5124C144.625 82.75 144.53 82.9583 144.407 83.1381C144.285 83.3172 144.128 83.4652 143.938 83.5814C143.808 83.6519 143.659 83.7116 143.491 83.7593C143.324 83.8076 143.137 83.8317 142.932 83.8317L142.79 82.8992C142.915 82.884 143.026 82.851 143.124 82.8008C143.221 82.75 143.302 82.6915 143.368 82.6261C143.522 82.4641 143.625 82.2291 143.675 81.921C143.725 81.613 143.75 81.2643 143.75 80.8749V78.6384H147.158ZM149.335 82.4368L148.975 83.7485H147.789L149.335 78.6384H150.836L152.405 83.7485H151.174L150.783 82.4368H149.335ZM150.619 81.5723L150.303 80.4881C150.258 80.3362 150.214 80.1724 150.172 79.9952C150.129 79.8186 150.088 79.6541 150.048 79.5022H150.033C149.993 79.6541 149.954 79.8198 149.917 79.999C149.879 80.1787 149.84 80.3413 149.8 80.4881L149.5 81.5723H150.619ZM156.443 78.6384V79.5861H154.221V80.4499C154.306 80.4404 154.405 80.4315 154.519 80.4239C154.632 80.4163 154.738 80.4125 154.838 80.4125C155.095 80.4125 155.35 80.4455 155.602 80.5109C155.856 80.5763 156.078 80.6831 156.269 80.8304C156.444 80.9619 156.586 81.1277 156.695 81.3284C156.802 81.5279 156.856 81.7692 156.856 82.0538C156.856 82.3066 156.812 82.5302 156.725 82.722C156.637 82.9145 156.521 83.0771 156.375 83.2086C156.255 83.3197 156.116 83.4131 155.958 83.4893C155.799 83.5662 155.631 83.6272 155.453 83.6723C155.276 83.718 155.09 83.751 154.897 83.7707C154.704 83.791 154.509 83.8012 154.314 83.8012C154.029 83.8012 153.784 83.7936 153.581 83.7783C153.377 83.7631 153.211 83.7459 153.081 83.7256V78.6384H156.443ZM154.214 82.9069C154.279 82.917 154.349 82.9246 154.424 82.9291C154.499 82.9342 154.577 82.9367 154.657 82.9367C154.797 82.9367 154.932 82.9145 155.062 82.8687C155.192 82.823 155.305 82.7576 155.4 82.6718C155.475 82.6007 155.535 82.5162 155.58 82.4178C155.625 82.3193 155.648 82.2069 155.648 82.0805C155.648 81.949 155.624 81.8366 155.576 81.7432C155.529 81.6492 155.462 81.5698 155.377 81.5044C155.277 81.4231 155.16 81.3653 155.024 81.3297C154.889 81.2941 154.755 81.2763 154.619 81.2763C154.554 81.2763 154.488 81.2789 154.42 81.284C154.353 81.289 154.284 81.2967 154.214 81.3068V82.9069Z" fill="#2B2A29"/>
<path d="M159.791 78.5552C160.182 78.5552 160.526 78.6231 160.824 78.7597C161.121 78.8963 161.372 79.0817 161.574 79.3168C161.777 79.5518 161.931 79.8262 162.036 80.1393C162.141 80.4525 162.193 80.7866 162.193 81.1404C162.193 81.5596 162.133 81.9363 162.013 82.2697C161.894 82.6032 161.724 82.8852 161.507 83.1152C161.289 83.3451 161.028 83.5217 160.722 83.6456C160.417 83.7694 160.079 83.8317 159.709 83.8317C159.333 83.8317 158.998 83.7643 158.703 83.631C158.408 83.4969 158.159 83.3121 157.956 83.0771C157.754 82.8421 157.598 82.567 157.491 82.2507C157.383 81.935 157.329 81.5952 157.329 81.2312C157.329 80.8469 157.388 80.4919 157.506 80.166C157.623 79.8402 157.789 79.5569 158.001 79.3168C158.214 79.0767 158.472 78.8899 158.774 78.7559C159.077 78.6219 159.416 78.5552 159.791 78.5552ZM159.762 79.4724C159.566 79.4724 159.394 79.5162 159.243 79.6051C159.093 79.6934 158.965 79.8148 158.86 79.9691C158.755 80.1228 158.676 80.3064 158.62 80.5185C158.565 80.7307 158.538 80.9606 158.538 81.2084C158.538 81.4561 158.567 81.6847 158.624 81.8944C158.682 82.104 158.763 82.285 158.868 82.4368C158.973 82.588 159.102 82.7055 159.255 82.7893C159.408 82.8725 159.579 82.9145 159.769 82.9145C159.964 82.9145 160.137 82.87 160.287 82.7817C160.437 82.6928 160.563 82.5715 160.666 82.4178C160.768 82.2634 160.847 82.0805 160.902 81.8677C160.957 81.6555 160.985 81.4256 160.985 81.1779C160.985 80.9505 160.958 80.7332 160.906 80.5262C160.853 80.3191 160.775 80.1368 160.67 79.9799C160.565 79.8236 160.436 79.6998 160.283 79.6083C160.13 79.5175 159.957 79.4724 159.762 79.4724ZM162.944 78.7064C163.119 78.6759 163.334 78.6511 163.587 78.6308C163.84 78.6104 164.142 78.6003 164.494 78.6003C165.191 78.6003 165.708 78.7368 166.043 79.01C166.203 79.1415 166.335 79.3079 166.435 79.5099C166.535 79.7125 166.584 79.9399 166.584 80.1927C166.584 80.7027 166.43 81.1074 166.119 81.4053C165.924 81.5926 165.686 81.7292 165.406 81.815C165.126 81.9007 164.816 81.9439 164.475 81.9439C164.32 81.9439 164.19 81.9363 164.085 81.921V83.7485H162.944V78.7064ZM164.085 81.0267C164.17 81.0464 164.296 81.0565 164.466 81.0565C164.769 81.0565 165.008 80.9835 165.182 80.8355C165.356 80.6888 165.444 80.483 165.444 80.2187C165.444 79.9799 165.366 79.7944 165.212 79.6629C165.058 79.5302 164.839 79.4648 164.556 79.4648C164.44 79.4648 164.344 79.4698 164.264 79.48C164.185 79.4902 164.125 79.4997 164.085 79.5099V81.0267ZM168.026 82.4368L167.665 83.7485H166.479L168.026 78.6384H169.527L171.096 83.7485H169.865L169.475 82.4368H168.026ZM169.309 81.5723L168.994 80.4881C168.949 80.3362 168.905 80.1724 168.863 79.9951C168.82 79.8186 168.779 79.6541 168.739 79.5022H168.724C168.684 79.6541 168.645 79.8198 168.607 79.999C168.57 80.1787 168.531 80.3413 168.491 80.4881L168.191 81.5723H169.309ZM172.259 79.6083H170.901V78.6384H174.781V79.6083H173.4V83.7485H172.259V79.6083ZM177.378 78.5552C177.769 78.5552 178.113 78.6231 178.41 78.7597C178.708 78.8963 178.959 79.0817 179.161 79.3168C179.364 79.5518 179.518 79.8262 179.623 80.1393C179.728 80.4525 179.781 80.7866 179.781 81.1404C179.781 81.5596 179.72 81.9363 179.6 82.2697C179.48 82.6032 179.312 82.8852 179.094 83.1152C178.876 83.3451 178.615 83.5217 178.309 83.6456C178.004 83.7694 177.666 83.8317 177.296 83.8317C176.921 83.8317 176.585 83.7643 176.29 83.631C175.995 83.4969 175.746 83.3121 175.543 83.0771C175.341 82.8421 175.185 82.567 175.078 82.2507C174.97 81.935 174.916 81.5952 174.916 81.2312C174.916 80.8469 174.975 80.4919 175.093 80.166C175.211 79.8402 175.375 79.5569 175.589 79.3168C175.801 79.0767 176.059 78.8899 176.361 78.7559C176.664 78.6219 177.003 78.5552 177.378 78.5552ZM177.348 79.4724C177.153 79.4724 176.981 79.5162 176.831 79.6051C176.68 79.6934 176.553 79.8148 176.448 79.9691C176.343 80.1228 176.263 80.3064 176.207 80.5185C176.153 80.7307 176.125 80.9606 176.125 81.2084C176.125 81.4561 176.154 81.6847 176.211 81.8944C176.269 82.104 176.35 82.285 176.455 82.4368C176.56 82.588 176.689 82.7055 176.842 82.7893C176.994 82.8725 177.166 82.9145 177.356 82.9145C177.551 82.9145 177.724 82.87 177.874 82.7817C178.024 82.6928 178.151 82.5715 178.253 82.4178C178.356 82.2634 178.434 82.0805 178.49 81.8677C178.544 81.6555 178.572 81.4256 178.572 81.1779C178.572 80.9505 178.546 80.7332 178.493 80.5262C178.441 80.3191 178.362 80.1368 178.257 79.9799C178.152 79.8236 178.023 79.6998 177.87 79.6083C177.717 79.5175 177.544 79.4724 177.348 79.4724ZM180.531 78.7064C180.706 78.6759 180.921 78.6511 181.174 78.6308C181.427 78.6104 181.73 78.6003 182.081 78.6003C182.778 78.6003 183.295 78.7368 183.63 79.01C183.79 79.1415 183.921 79.3079 184.022 79.5099C184.122 79.7125 184.172 79.9399 184.172 80.1927C184.172 80.7027 184.017 81.1074 183.706 81.4053C183.511 81.5926 183.273 81.7292 182.993 81.815C182.713 81.9007 182.402 81.9439 182.062 81.9439C181.908 81.9439 181.777 81.9363 181.672 81.921V83.7485H180.531V78.7064ZM181.672 81.0267C181.757 81.0464 181.884 81.0565 182.052 81.0565C182.357 81.0565 182.596 80.9835 182.769 80.8355C182.943 80.6888 183.031 80.483 183.031 80.2187C183.031 79.9799 182.953 79.7944 182.799 79.6629C182.645 79.5302 182.426 79.4648 182.143 79.4648C182.028 79.4648 181.931 79.4698 181.851 79.48C181.772 79.4902 181.712 79.4997 181.672 79.5099V81.0267ZM185.943 78.6384V80.1546C185.943 80.5643 185.939 80.9657 185.932 81.3602C185.924 81.754 185.908 82.123 185.883 82.4667H185.913C186.043 82.1637 186.188 81.8531 186.349 81.5342C186.508 81.216 186.664 80.9206 186.814 80.6475L187.902 78.6384H189.073V83.7485H188.022V82.2393C188.022 81.8454 188.027 81.4713 188.037 81.1175C188.047 80.7637 188.07 80.4201 188.105 80.0866H188.083C187.967 80.3896 187.833 80.7002 187.681 81.0191C187.528 81.3373 187.377 81.6327 187.227 81.9058L186.198 83.7485H184.892V78.6384H185.943ZM189.636 83.7485C189.691 83.6621 189.739 83.5713 189.779 83.4753C189.819 83.3794 189.857 83.2784 189.891 83.1717C189.941 83.0256 189.989 82.8802 190.034 82.736C190.079 82.5918 190.126 82.4514 190.177 82.3155C190.227 82.1789 190.285 82.0512 190.353 81.9325C190.421 81.8137 190.502 81.7089 190.597 81.618C190.652 81.5622 190.716 81.5126 190.789 81.4701C190.861 81.4269 190.937 81.3881 191.017 81.3525V81.3297C190.877 81.3043 190.742 81.2604 190.612 81.1969C190.482 81.134 190.368 81.0502 190.27 80.9467C190.173 80.8431 190.096 80.7205 190.038 80.5789C189.98 80.4379 189.952 80.2734 189.952 80.0866C189.952 79.844 189.999 79.6325 190.094 79.4533C190.189 79.2736 190.318 79.1237 190.478 79.0024C190.674 78.8505 190.918 78.7457 191.207 78.6873C191.499 78.6295 191.807 78.6003 192.133 78.6003C192.414 78.6003 192.682 78.6104 192.934 78.6308C193.186 78.6511 193.407 78.6759 193.592 78.7064V83.7485H192.451V81.7387H192.173C191.953 81.7387 191.773 81.8048 191.633 81.9363C191.553 82.0119 191.483 82.1078 191.423 82.224C191.363 82.3403 191.31 82.4616 191.265 82.588C191.22 82.7144 191.18 82.8408 191.145 82.9672C191.11 83.0936 191.072 83.2098 191.033 83.3159C191.007 83.3921 190.982 83.4626 190.957 83.5281C190.933 83.5941 190.897 83.6672 190.852 83.7485H189.636ZM192.451 79.5099C192.411 79.4997 192.352 79.4902 192.275 79.48C192.197 79.4698 192.101 79.4648 191.986 79.4648C191.741 79.4648 191.53 79.5213 191.355 79.6337C191.18 79.7474 191.092 79.9348 191.092 80.1965C191.092 80.4277 191.185 80.6043 191.37 80.7282C191.555 80.8507 191.778 80.9124 192.038 80.9124C192.113 80.9124 192.187 80.9117 192.26 80.9092C192.332 80.9066 192.396 80.9003 192.451 80.8901V79.5099Z" fill="#2B2A29"/>
<path d="M134.833 75.5835C134.728 75.6394 134.562 75.6915 134.337 75.7392C134.112 75.7874 133.844 75.8116 133.534 75.8116C133.099 75.8116 132.715 75.7455 132.381 75.614C132.048 75.4826 131.77 75.3034 131.549 75.076C131.327 74.8486 131.159 74.578 131.047 74.2649C130.933 73.9511 130.877 73.6126 130.877 73.2486C130.877 72.8141 130.949 72.4273 131.096 72.0887C131.242 71.7502 131.44 71.4656 131.689 71.2357C131.938 71.0057 132.232 70.8317 132.569 70.7129C132.907 70.5941 133.266 70.5344 133.647 70.5344C133.946 70.5344 134.204 70.5586 134.419 70.6068C134.635 70.6545 134.792 70.7066 134.892 70.7618L134.66 71.679C134.545 71.6289 134.407 71.5844 134.247 71.5469C134.087 71.5088 133.904 71.4898 133.699 71.4898C133.474 71.4898 133.262 71.524 133.065 71.592C132.867 71.6606 132.696 71.7654 132.55 71.9071C132.406 72.0481 132.292 72.2253 132.209 72.4375C132.127 72.6496 132.085 72.8973 132.085 73.1806C132.085 73.6958 132.227 74.1029 132.51 74.4015C132.792 74.6994 133.191 74.8486 133.707 74.8486C133.882 74.8486 134.056 74.8321 134.228 74.7991C134.401 74.7661 134.545 74.7273 134.66 74.6816L134.833 75.5835ZM136.694 71.5882H135.336V70.6176H139.216V71.5882H137.835V75.7277H136.694V71.5882ZM141.813 70.5344C142.204 70.5344 142.548 70.603 142.845 70.739C143.143 70.8755 143.394 71.0616 143.596 71.2967C143.799 71.5317 143.953 71.8054 144.058 72.1192C144.163 72.4324 144.215 72.7658 144.215 73.1196C144.215 73.5395 144.155 73.9162 144.035 74.2496C143.915 74.5831 143.746 74.8651 143.529 75.0951C143.311 75.325 143.05 75.5016 142.744 75.6255C142.439 75.7493 142.101 75.8116 141.731 75.8116C141.355 75.8116 141.02 75.7442 140.725 75.6102C140.43 75.4762 140.181 75.292 139.978 75.057C139.776 74.822 139.62 74.5463 139.513 74.2306C139.405 73.9149 139.351 73.5751 139.351 73.2111C139.351 72.8268 139.41 72.4717 139.528 72.1459C139.645 71.8194 139.81 71.5368 140.023 71.2967C140.236 71.0565 140.494 70.8692 140.796 70.7351C141.099 70.6018 141.438 70.5344 141.813 70.5344ZM141.784 71.4516C141.588 71.4516 141.416 71.4961 141.265 71.5844C141.115 71.6733 140.987 71.7946 140.882 71.9484C140.777 72.1027 140.698 72.2856 140.642 72.4984C140.587 72.7106 140.56 72.9405 140.56 73.1882C140.56 73.436 140.589 73.6646 140.646 73.8743C140.704 74.0839 140.785 74.2649 140.89 74.4161C140.995 74.5679 141.124 74.6854 141.277 74.7686C141.43 74.8524 141.601 74.8937 141.791 74.8937C141.986 74.8937 142.158 74.8499 142.309 74.761C142.459 74.6727 142.585 74.5514 142.688 74.3976C142.79 74.2433 142.869 74.0597 142.924 73.8476C142.979 73.6354 143.007 73.4055 143.007 73.1578C143.007 72.9304 142.98 72.7131 142.928 72.5061C142.875 72.2983 142.797 72.1167 142.692 71.9598C142.587 71.8029 142.458 71.679 142.305 71.5882C142.152 71.4974 141.979 71.4516 141.784 71.4516ZM149.207 73.772C149.197 73.4633 149.187 73.1298 149.177 72.7709C149.167 72.412 149.162 72.0455 149.162 71.672H149.14C149.06 72.0004 148.97 72.3365 148.873 72.6801C148.775 73.0237 148.677 73.347 148.577 73.6507L147.961 75.6445H147.068L146.527 73.6735C146.442 73.3699 146.36 73.0441 146.279 72.6953C146.2 72.3466 146.13 72.0055 146.069 71.672H146.054C146.039 72.0208 146.025 72.3809 146.013 72.7519C146.001 73.1235 145.984 73.4684 145.964 73.7872L145.874 75.7277H144.816L145.139 70.6176H146.662L147.158 72.3238C147.238 72.6172 147.315 72.9189 147.391 73.2295C147.465 73.5408 147.531 73.8476 147.586 74.1512H147.608C147.678 73.8527 147.755 73.5446 147.837 73.2257C147.92 72.9075 148.004 72.6045 148.089 72.3161L148.629 70.6176H150.123L150.4 75.7277H149.282L149.207 73.772ZM152.457 74.4161L152.097 75.7277H150.911L152.457 70.6176H153.959L155.527 75.7277H154.296L153.906 74.4161H152.457ZM153.74 73.5522L153.425 72.4679C153.381 72.3161 153.337 72.1523 153.294 71.975C153.252 71.7978 153.21 71.6339 153.17 71.4821H153.155C153.115 71.6339 153.076 71.7991 153.039 71.9788C153.002 72.158 152.963 72.3212 152.922 72.4679L152.622 73.5522H153.74ZM156.691 71.5882H155.332V70.6176H159.213V71.5882H157.832V75.7277H156.691V71.5882ZM161.81 70.5344C162.2 70.5344 162.544 70.603 162.842 70.739C163.14 70.8755 163.39 71.0616 163.592 71.2967C163.796 71.5317 163.949 71.8054 164.054 72.1192C164.159 72.4324 164.212 72.7658 164.212 73.1196C164.212 73.5395 164.152 73.9162 164.032 74.2496C163.912 74.5831 163.743 74.8651 163.525 75.0951C163.308 75.325 163.046 75.5016 162.741 75.6255C162.435 75.7493 162.098 75.8116 161.727 75.8116C161.352 75.8116 161.017 75.7442 160.722 75.6102C160.426 75.4762 160.177 75.292 159.975 75.057C159.772 74.822 159.617 74.5463 159.509 74.2306C159.402 73.9149 159.348 73.5751 159.348 73.2111C159.348 72.8268 159.407 72.4717 159.524 72.1459C159.642 71.8194 159.807 71.5368 160.02 71.2967C160.232 71.0565 160.49 70.8692 160.793 70.7351C161.096 70.6018 161.435 70.5344 161.81 70.5344ZM161.78 71.4516C161.584 71.4516 161.412 71.4961 161.262 71.5844C161.112 71.6733 160.984 71.7946 160.879 71.9484C160.774 72.1027 160.694 72.2856 160.639 72.4984C160.584 72.7106 160.556 72.9405 160.556 73.1882C160.556 73.436 160.585 73.6646 160.642 73.8743C160.7 74.0839 160.781 74.2649 160.886 74.4161C160.991 74.5679 161.12 74.6854 161.273 74.7686C161.426 74.8524 161.597 74.8937 161.788 74.8937C161.983 74.8937 162.155 74.8499 162.305 74.761C162.455 74.6727 162.582 74.5514 162.684 74.3976C162.787 74.2433 162.865 74.0597 162.921 73.8476C162.976 73.6354 163.003 73.4055 163.003 73.1578C163.003 72.9304 162.977 72.7131 162.925 72.5061C162.872 72.2983 162.793 72.1167 162.688 71.9598C162.583 71.8029 162.454 71.679 162.301 71.5882C162.149 71.4974 161.975 71.4516 161.78 71.4516ZM168.701 70.6176V75.7277H167.559V71.566H166.411V72.7786C166.411 73.1069 166.399 73.4156 166.374 73.7034C166.349 73.9918 166.302 74.2547 166.235 74.4923C166.167 74.7298 166.072 74.9382 165.95 75.1173C165.827 75.2971 165.671 75.4451 165.48 75.5613C165.35 75.6318 165.202 75.6915 165.034 75.7392C164.866 75.7874 164.68 75.8116 164.475 75.8116L164.332 74.8785C164.457 74.8639 164.568 74.8308 164.666 74.78C164.763 74.7299 164.845 74.6714 164.91 74.606C165.065 74.444 165.168 74.209 165.217 73.9009C165.268 73.5922 165.293 73.2435 165.293 72.8548V70.6176H168.701ZM171.928 70.5344C172.319 70.5344 172.663 70.603 172.96 70.739C173.258 70.8755 173.509 71.0616 173.711 71.2967C173.914 71.5317 174.068 71.8054 174.173 72.1192C174.278 72.4324 174.331 72.7658 174.331 73.1196C174.331 73.5395 174.27 73.9162 174.15 74.2496C174.03 74.5831 173.861 74.8651 173.644 75.0951C173.426 75.325 173.165 75.5016 172.859 75.6255C172.554 75.7493 172.216 75.8116 171.846 75.8116C171.47 75.8116 171.135 75.7442 170.84 75.6102C170.545 75.4762 170.296 75.292 170.093 75.057C169.891 74.822 169.735 74.5463 169.628 74.2306C169.52 73.9149 169.466 73.5751 169.466 73.2111C169.466 72.8268 169.525 72.4717 169.643 72.1459C169.761 71.8194 169.925 71.5368 170.138 71.2967C170.351 71.0565 170.608 70.8692 170.911 70.7351C171.214 70.6018 171.553 70.5344 171.928 70.5344ZM171.898 71.4516C171.703 71.4516 171.53 71.4961 171.38 71.5844C171.23 71.6733 171.103 71.7946 170.998 71.9484C170.892 72.1027 170.813 72.2856 170.757 72.4984C170.703 72.7106 170.675 72.9405 170.675 73.1882C170.675 73.436 170.704 73.6646 170.761 73.8743C170.819 74.0839 170.9 74.2649 171.005 74.4161C171.11 74.5679 171.239 74.6854 171.392 74.7686C171.544 74.8524 171.716 74.8937 171.906 74.8937C172.101 74.8937 172.274 74.8499 172.424 74.761C172.574 74.6727 172.701 74.5514 172.803 74.3976C172.906 74.2433 172.984 74.0597 173.039 73.8476C173.094 73.6354 173.122 73.4055 173.122 73.1578C173.122 72.9304 173.095 72.7131 173.043 72.5061C172.99 72.2983 172.912 72.1167 172.807 71.9598C172.702 71.8029 172.573 71.679 172.42 71.5882C172.267 71.4974 172.094 71.4516 171.898 71.4516ZM178.136 70.6176V71.566H176.222V75.7277H175.081V70.6176H178.136ZM179.802 70.6176V72.1345C179.802 72.5435 179.799 72.9456 179.791 73.3394C179.784 73.7339 179.767 74.1029 179.742 74.4466H179.772C179.902 74.1436 180.048 73.8323 180.207 73.5141C180.368 73.1959 180.523 72.8999 180.673 72.6267L181.761 70.6176H182.932V75.7277H181.882V74.2192C181.882 73.8247 181.887 73.4506 181.897 73.0968C181.907 72.7436 181.929 72.3993 181.965 72.0659H181.942C181.827 72.3695 181.693 72.6801 181.54 72.9983C181.387 73.3172 181.236 73.6125 181.086 73.8857L180.058 75.7277H178.752V70.6176H179.802ZM183.495 75.7277C183.551 75.642 183.598 75.5512 183.638 75.4552C183.678 75.3587 183.715 75.2577 183.751 75.1516C183.801 75.0049 183.848 74.8601 183.893 74.7159C183.939 74.5717 183.986 74.4313 184.036 74.2947C184.086 74.1588 184.145 74.0311 184.212 73.9124C184.28 73.7936 184.361 73.6881 184.456 73.5973C184.511 73.542 184.575 73.4925 184.648 73.4499C184.72 73.4067 184.796 73.3674 184.877 73.3324V73.3096C184.737 73.2842 184.601 73.2397 184.471 73.1768C184.341 73.1133 184.227 73.0301 184.13 72.9265C184.032 72.823 183.954 72.7004 183.897 72.5588C183.839 72.4171 183.811 72.2533 183.811 72.0659C183.811 71.8232 183.858 71.6123 183.953 71.4332C184.049 71.2535 184.177 71.1029 184.337 70.9816C184.532 70.8304 184.776 70.7256 185.067 70.6672C185.358 70.6087 185.666 70.5802 185.992 70.5802C186.273 70.5802 186.54 70.5903 186.793 70.6107C187.046 70.6303 187.266 70.6557 187.451 70.6862V75.7277H186.31V73.7186H186.033C185.813 73.7186 185.632 73.7847 185.492 73.9162C185.412 73.9918 185.342 74.0877 185.282 74.2039C185.222 74.3201 185.169 74.4415 185.124 74.5679C185.079 74.6943 185.039 74.8207 185.004 74.9471C184.969 75.0735 184.932 75.1897 184.891 75.2958C184.867 75.3714 184.842 75.4425 184.816 75.508C184.791 75.574 184.757 75.6471 184.711 75.7277H183.495ZM186.31 71.4898C186.27 71.4796 186.211 71.4694 186.134 71.4593C186.056 71.4491 185.96 71.4447 185.845 71.4447C185.599 71.4447 185.389 71.5012 185.215 71.6136C185.039 71.7273 184.952 71.9147 184.952 72.1758C184.952 72.407 185.044 72.5842 185.23 72.708C185.415 72.8306 185.637 72.8922 185.898 72.8922C185.972 72.8922 186.047 72.891 186.119 72.8884C186.191 72.8859 186.255 72.8795 186.31 72.8694V71.4898ZM193.171 75.7277C193.116 75.6725 193.062 75.6153 193.01 75.5575C192.957 75.4991 192.901 75.4349 192.84 75.3638C192.676 75.4952 192.478 75.6026 192.248 75.6864C192.018 75.7697 191.752 75.8116 191.452 75.8116C191.147 75.8116 190.883 75.7697 190.66 75.6864C190.437 75.6026 190.255 75.4927 190.112 75.3561C189.97 75.2202 189.863 75.0646 189.793 74.8899C189.723 74.7159 189.688 74.5399 189.688 74.3633C189.688 74.0248 189.776 73.7339 189.951 73.4912C190.126 73.2486 190.359 73.0517 190.649 72.8999V72.8694C190.539 72.7481 190.447 72.5994 190.375 72.4222C190.302 72.2456 190.266 72.0659 190.266 71.8842C190.266 71.7222 190.297 71.5615 190.36 71.4027C190.422 71.2433 190.517 71.0991 190.645 70.9708C190.773 70.8419 190.93 70.7364 191.118 70.6557C191.306 70.5751 191.527 70.5344 191.783 70.5344C191.978 70.5344 192.159 70.5624 192.327 70.6176C192.494 70.6735 192.639 70.7529 192.762 70.8565C192.884 70.9606 192.981 71.087 193.051 71.2357C193.121 71.3849 193.156 71.5507 193.156 71.7324C193.156 71.9903 193.077 72.2291 192.92 72.4489C192.762 72.6687 192.508 72.8668 192.157 73.0441L192.15 73.0745C192.295 73.2359 192.442 73.4029 192.589 73.5751C192.737 73.7466 192.873 73.8984 192.998 74.0299C193.098 73.8679 193.186 73.6773 193.261 73.4576C193.336 73.2372 193.391 73.0136 193.426 72.7862H194.447C194.377 73.1755 194.275 73.5319 194.143 73.8552C194.011 74.1785 193.831 74.4694 193.606 74.7273C193.752 74.8886 193.896 75.0532 194.042 75.2202C194.187 75.3866 194.34 75.5562 194.499 75.7277H193.171ZM191.617 74.9776C191.762 74.9776 191.895 74.9522 192.015 74.9013C192.135 74.8512 192.233 74.7902 192.308 74.7197C192.147 74.5577 191.97 74.3684 191.775 74.1512C191.579 73.9333 191.377 73.7059 191.167 73.4684C191.062 73.5446 190.969 73.6392 190.889 73.7529C190.809 73.8666 190.769 74.007 190.769 74.1734C190.769 74.3913 190.844 74.5793 190.994 74.7387C191.144 74.8975 191.349 74.9776 191.61 74.9776H191.617ZM191.737 71.2547C191.592 71.2547 191.481 71.3094 191.403 71.418C191.325 71.5266 191.287 71.6466 191.287 71.7781C191.287 71.9096 191.316 72.0328 191.373 72.1497C191.431 72.266 191.517 72.3873 191.632 72.513C191.817 72.3822 191.956 72.2609 192.049 72.1497C192.141 72.0379 192.188 71.9096 192.188 71.7629C192.188 71.6416 192.151 71.5266 192.079 71.418C192.006 71.3094 191.895 71.2547 191.745 71.2547H191.737Z" fill="#2B2A29"/>
<path fill-rule="evenodd" clip-rule="evenodd" d="M81.7805 40.4308V58.9186C81.7805 59.1568 81.2195 59.7653 81.046 59.9368C80.751 60.229 80.4058 60.5104 80.3643 61.0097H86.1386C86.0657 60.1185 84.6136 59.7209 84.6136 58.3685V44.9425C84.6136 43.9339 84.6972 42.8102 84.9249 42.0658C85.0658 41.6033 85.1984 41.2972 85.4638 40.9599C86.3317 39.8566 87.5548 40.1627 87.5548 42.0816V58.8087C87.5548 59.2521 87.2008 59.6027 87.0153 59.914C86.8254 60.2335 86.4983 60.6108 86.4656 61.0097H91.5866C91.5728 60.384 91.6136 60.7727 91.0414 59.9095C90.8508 59.6218 90.4967 59.2369 90.4967 58.8087V43.2917C90.4967 40.7128 92.9814 39.0696 93.3047 41.5563C93.5952 43.7967 93.4386 55.2517 93.4386 58.258C93.4386 59.2343 93.2613 59.2006 92.8179 59.7221C92.2337 60.4081 91.9501 60.5606 91.913 61.0097H97.688C97.649 60.5364 97.3421 60.2671 97.0622 59.9908C95.8504 58.7948 96.2711 58.514 96.2711 55.7274C96.2711 53.5398 96.3874 43.5724 96.256 42.3167C95.8825 38.7425 93.4871 37.8386 91.2558 38.9965C90.4445 39.4177 90.4917 39.5892 90.0609 39.8807C89.0686 39.2093 89.1969 38.5602 87.3373 38.5602C85.8217 38.5602 85.2116 39.586 84.6136 39.9906V38.5602H80.3643C80.3869 39.5898 81.7805 39.8426 81.7805 40.4308Z" fill="#2B2A29"/>
<path fill-rule="evenodd" clip-rule="evenodd" d="M158.483 58.918H157.503V32.8371H158.483C162.15 32.8371 161.188 49.9574 160.871 53.4058C160.749 54.727 160.238 58.918 158.483 58.918ZM154.343 33.2773V58.4778C154.343 59.6129 152.625 59.8899 152.6 61.0091H158.81C163.246 61.0091 164.321 53.9095 164.366 50.5538C164.377 49.7643 164.482 49.4238 164.474 48.022C164.469 47.0984 164.585 46.4143 164.585 45.3821C164.585 43.7808 164.476 41.9902 164.358 40.4384C164.097 36.9945 162.803 30.7461 158.592 30.7461H152.6C152.625 31.8977 154.343 32.0794 154.343 33.2773Z" fill="#2B2A29"/>
<path fill-rule="evenodd" clip-rule="evenodd" d="M104.443 59.2487C103.088 59.2487 102.373 57.5012 102.373 56.1674V43.4019C102.373 42.0318 103.153 40.3206 104.116 40.3206C105.161 40.3206 105.233 41.9766 105.379 43.0069C105.468 43.6351 105.393 44.2499 105.487 44.8788L105.517 53.84C105.422 54.695 105.483 59.2487 104.443 59.2487ZM98.0146 38.6698C98.2228 39.4562 99.5403 39.7909 99.5403 40.3206V64.2006C99.5403 64.6859 97.2631 66.4015 98.3417 66.4015C105.058 66.4015 104.195 66.6797 103.182 65.3643C102.938 65.0479 102.939 65.0575 102.666 64.785C102.365 64.4852 102.375 64.543 102.364 63.9897C102.336 62.5396 102.373 61.0361 102.373 59.5783C103.688 60.4676 103.048 61.0094 105.533 61.0094C105.916 61.0094 106.476 60.6378 106.703 60.4301C108.817 58.496 108.692 49.9965 108.692 47.0333C108.692 45.1494 108.468 43.2597 108.084 41.7054C107.116 37.792 104.211 37.8548 102.373 39.9903C102.373 38.1902 103.066 38.5599 98.3417 38.5599C98.2146 38.5599 98.0404 38.638 98.0146 38.6698Z" fill="#2B2A29"/>
<path fill-rule="evenodd" clip-rule="evenodd" d="M178.204 40.4306V58.9184C178.204 59.5555 176.857 60.1723 176.788 61.0094H182.562C182.509 60.3577 181.146 59.4583 181.146 59.0283V43.2915C181.146 40.3689 184.414 38.6025 184.414 42.8513V58.698C184.414 59.5961 182.12 61.0094 183.216 61.0094H188.446C189.261 61.0094 187.92 59.8839 187.431 59.283C187.1 58.8784 187.248 56.7086 187.248 56.0569C187.248 51.8157 187.356 46.3728 187.251 42.2974C187.156 38.5904 183.913 37.9457 182.239 39.0033C181.828 39.2624 181.508 39.6359 181.146 39.8805C181.146 38.1318 181.783 38.5599 176.788 38.5599C176.874 39.5985 178.204 39.8087 178.204 40.4306Z" fill="#2B2A29"/>
<path fill-rule="evenodd" clip-rule="evenodd" d="M139.635 53.7463C139.635 52.2161 139.788 50.3074 140.255 49.2009C140.693 48.1617 141.626 46.9428 142.467 46.373C142.467 49.0516 142.584 54.7156 142.471 57.1611C142.398 58.73 140.292 61.1132 139.772 57.0194L139.635 53.7463ZM140.942 40.3209C142.786 40.3209 142.467 41.8911 142.467 43.7319C142.467 44.7514 141.826 45.1026 141.113 45.6654C140.459 46.1806 139.965 46.6455 139.39 47.2261C138.193 48.4349 137.243 49.3864 136.881 51.2945C136.491 53.3417 136.408 57.8484 137.719 59.7533C138.873 61.4296 140.977 61.3552 142.384 60.0448C142.669 59.7793 142.619 59.6847 143.012 59.5786C143.163 60.1497 144.05 61.0097 145.191 61.0097C146.41 61.0097 147.723 59.1988 147.261 58.3686C146.792 58.6862 146.61 59.249 145.845 59.249C145.15 59.249 145.409 57.3256 145.409 56.6078C145.409 53.3925 145.657 43.5172 145.04 41.3538C144.182 38.3468 140.326 37.0167 137.123 41.3093C136.826 41.7069 136.401 42.6896 137.828 41.5773C138.553 41.012 139.914 40.3209 140.942 40.3209Z" fill="#2B2A29"/>
<path fill-rule="evenodd" clip-rule="evenodd" d="M72.8467 30.8563C73.1089 31.8491 74.6987 32.1451 74.6987 33.4974V58.2577C74.6987 59.6138 73.1127 59.8921 72.8467 60.8988C73.2913 61.1516 78.4619 61.0094 79.3839 61.0094C79.8002 61.0094 79.4235 61.043 79.7103 60.8988C79.4656 59.9727 77.8582 59.6094 77.8582 58.1478V33.6073C77.8582 32.1457 79.4656 31.783 79.7103 30.8563C79.3122 30.6308 73.0001 30.6676 72.8467 30.8563Z" fill="#2B2A29"/>
<path fill-rule="evenodd" clip-rule="evenodd" d="M113.922 43.2913C113.922 42.6682 113.999 41.9022 114.146 41.4271C114.737 39.5126 116.754 40.0855 116.754 42.8512V47.5833H113.922V43.2913ZM110.762 47.3635C110.762 51.0311 110.669 56.866 112.814 59.5973C114.278 61.4622 117.228 61.4914 118.485 59.786C118.958 59.1444 119.587 58.2361 119.587 57.1575C119.122 57.1969 119.437 56.9644 118.887 57.7705C117.526 59.7618 114.97 60.0013 114.312 57.0928C113.789 54.7756 113.922 51.7184 113.922 49.2342C115.214 49.2342 118.538 49.3707 119.587 49.1243C119.967 47.4804 119.655 42.2064 118.536 40.3917C117.748 39.1124 116.742 38.5598 115.229 38.5598C111.941 38.5598 110.762 43.8097 110.762 47.3635Z" fill="#2B2A29"/>
<path fill-rule="evenodd" clip-rule="evenodd" d="M169.815 44.2823C169.815 38.9874 171.94 39.937 172.476 41.4837C172.908 42.7299 172.757 46.078 172.757 47.5834H169.815V44.2823ZM166.655 48.3539C166.655 51.5972 166.836 56.9779 168.646 59.4386C170.108 61.4293 173.046 61.6135 174.502 59.6914C174.917 59.1439 175.569 58.0698 175.589 57.1576C174.66 57.2358 174.575 59.2487 172.321 59.2487C170.756 59.2487 170.294 57.6632 170.075 56.2341C169.771 54.2453 169.815 51.3927 169.815 49.2343H174.936C175.27 49.2343 175.589 49.1326 175.589 48.7941C175.589 46.3315 175.757 43.045 174.756 40.9419C172.91 37.064 166.655 36.7306 166.655 48.3539Z" fill="#2B2A29"/>
<path fill-rule="evenodd" clip-rule="evenodd" d="M189.1 38.5597C189.298 39.3105 190.376 39.5843 190.508 40.3281L190.512 56.6105C190.544 57.6954 190.642 59.7401 191.464 60.4915C192.327 61.2798 194.314 61.2646 195.189 60.1168C195.568 59.6188 195.964 59.1144 195.964 58.2576C195.269 58.316 195.268 59.2485 194.438 59.2485C193.851 59.2485 193.458 58.7041 193.458 58.1477V40.6501C193.458 40.1045 194.083 39.4471 194.47 39.0279C195.363 38.0611 194.42 38.4555 193.458 38.2294L193.46 34.1559C193.477 32.8926 193.688 33.0571 191.932 33.0571C191.22 33.0571 191.936 35.3056 190.986 37.2735C190.858 37.5377 190.959 37.3687 190.771 37.6063C190.757 37.6241 190.736 37.6489 190.721 37.6666C190.028 38.4898 189.765 38.237 189.1 38.5597Z" fill="#2B2A29"/>
<path fill-rule="evenodd" clip-rule="evenodd" d="M120.786 38.6697C120.967 39.357 122.311 40.0221 122.311 40.5404V58.9183C122.311 59.3814 120.112 61.0094 121.113 61.0094H126.669C126.648 60.042 125.144 59.5535 125.144 58.9183V44.2823C125.144 42.8423 125.613 40.5404 126.887 40.5404C127.535 40.5404 128.123 40.6299 128.604 41.227C128.983 41.6977 128.915 42.2529 129.502 42.411C129.939 41.6253 129.038 38.5599 127.432 38.5599C126.225 38.5599 125.886 39.5984 125.144 40.1002C125.144 38.1756 125.873 38.5599 121.113 38.5599C120.985 38.5599 120.811 38.638 120.786 38.6697Z" fill="#2B2A29"/>
<path fill-rule="evenodd" clip-rule="evenodd" d="M131.245 40.9808V58.3684C131.245 59.7315 129.797 60.0733 129.72 61.0095H135.494C135.424 60.1584 134.225 59.6763 134.087 58.909L134.082 39.5465C134.104 38.2158 134.509 38.56 129.72 38.56C129.776 39.2397 130.173 39.3267 130.566 39.6862C130.964 40.0508 131.245 40.2585 131.245 40.9808Z" fill="#2B2A29"/>
<path fill-rule="evenodd" clip-rule="evenodd" d="M132.553 35.0381C134.513 35.0381 134.566 30.7461 132.553 30.7461C130.562 30.7461 130.666 35.0381 132.553 35.0381Z" fill="#2B2A29"/>
</g>
<defs>
<clipPath id="clip0_22:20">
<rect width="196" height="93" fill="white"/>
</clipPath>
</defs>
</svg>
