<svg width="120" height="120" viewBox="0 0 120 120" fill="none" xmlns="http://www.w3.org/2000/svg">
<circle cx="60" cy="60" r="60" fill="white"/>
<path fill-rule="evenodd" clip-rule="evenodd" d="M51.1181 79.8618C51.0545 79.8592 50.8106 80.0317 50.0972 80.5364L50.0541 80.5669C50.161 78.7335 51.1546 76.8981 51.9753 75.3822C52.1201 75.1148 52.2595 74.8573 52.3876 74.6115C57.259 65.2856 66.762 66.0886 70.8896 74.3015C72.2564 77.0207 72.634 78.3312 73.1375 80.0789C73.3638 80.8643 73.6155 81.738 73.9939 82.8675C74.185 83.438 74.3589 84.0394 74.535 84.6488C75.214 86.9979 75.9271 89.465 77.7948 90.7286C79.4804 90.2745 81.1773 87.2846 81.961 85.6988C84.9541 79.6384 86.5313 73.8056 88.0841 67.252C89.5598 61.0273 89.8839 54.0672 89.6941 47.6132C89.4386 38.9823 86.9466 30.8155 77.3751 29.2644C75.8017 29.0089 74.3958 29.1675 73.019 29.3229C72.5775 29.3727 72.139 29.4222 71.6989 29.4576C70.5138 29.5529 69.7567 29.8618 69.054 30.1484C68.4501 30.3948 67.8864 30.6247 67.1258 30.6886C67.2292 31.9427 67.548 32.2457 68.0388 32.7119C68.2328 32.8963 68.4537 33.1062 68.6988 33.4105L71.1865 37.0547C71.284 37.2073 71.5074 37.5354 71.7027 37.8221L71.7031 37.8226L71.7032 37.8227C71.8823 38.0857 72.0377 38.3138 72.05 38.3393C73.0276 40.3329 72.0058 42.8458 69.6479 43.7395C68.0023 44.3636 66.6335 42.9826 65.8328 41.8467C65.6372 41.5698 65.326 41.0394 65.1433 40.6949C63.0067 36.6628 59.0688 32.1563 54.5701 30.7462C46.4816 28.2091 36.5479 30.8661 32.981 39.9221C32.7907 40.4056 32.7579 40.5803 32.7015 40.8811C32.6683 41.0584 32.6268 41.2795 32.54 41.6333C32.4275 42.0905 32.3343 42.3569 32.2352 42.6404L32.2352 42.6404L32.2352 42.6404C32.1708 42.8244 32.104 43.0157 32.0276 43.2711C31.7396 44.2344 31.6169 45.115 31.4523 46.2966L31.4039 46.643C30.9309 49.995 30.9631 50.4364 31.0544 51.6864C31.0904 52.1792 31.1356 52.7978 31.1627 53.7701C31.2798 57.9393 31.9963 64.1513 33.1751 68.0579L37.2513 80.5665C37.2516 80.5666 37.2518 80.5668 37.2521 80.5669C37.5532 80.6643 38.0564 81.6916 38.7164 83.0387C39.5892 84.8204 40.7361 87.1615 42.052 88.6513L44.0958 90.5904C44.1124 90.554 44.1591 90.6099 44.2043 90.6641C44.2251 90.6891 44.2457 90.7137 44.2628 90.7287C47.1108 89.207 48.0129 86.2318 48.7804 83.7003C49.0926 82.6706 49.3826 81.7143 49.7722 80.9591C49.8467 80.8145 49.8929 80.7103 49.9189 80.6371C49.9543 80.6223 49.999 80.5996 50.0547 80.5669C50.7992 80.0402 51.0524 79.8602 51.1181 79.8618ZM49.8499 80.5366C49.909 80.4687 49.991 80.4343 49.9189 80.6371C49.7547 80.7059 49.7908 80.6045 49.8499 80.5366ZM35.84 79.8889C35.7652 79.8771 35.8178 79.9442 35.8951 80.0428C36.0197 80.2019 36.2087 80.443 36.0325 80.5682C36.117 81.9088 36.2037 82.0135 36.474 82.3393C36.7199 82.6358 37.1177 83.1154 37.8039 84.8756L43.1802 92.0824C43.5571 92.4596 44.0063 92.6606 44.4594 92.7147C44.0065 92.6605 43.5576 92.4594 43.1809 92.0825L37.8043 84.8759C37.1183 83.1157 36.7205 82.6361 36.4747 82.3395C36.2044 82.0136 36.1176 81.9089 36.0331 80.5683C36.2094 80.4431 36.0204 80.202 35.8957 80.043C35.8186 79.9445 35.766 79.8776 35.84 79.8889ZM48.4384 96.4865C51.8367 94.6138 55.1392 89.0931 55.8459 84.5722L55.8472 84.5713C56.1618 84.2879 56.3364 83.717 56.5012 83.1781L56.5013 83.178C56.5586 82.9907 56.6147 82.8072 56.6751 82.6411C56.7969 82.3033 56.891 82.0096 56.9814 81.7274L56.9814 81.7272C57.1229 81.2854 57.2555 80.8715 57.4715 80.3604C57.5682 80.1315 57.666 79.8945 57.7653 79.6536L57.7653 79.6536C58.2743 78.4194 58.8246 77.0849 59.491 76.2418C60.4644 75.0078 62.2428 74.506 63.5573 75.8569C65.0489 77.3893 66.5961 82.605 67.0956 84.9086C67.8348 88.3109 70.12 93.7529 72.9987 95.9024C73.2483 96.0886 73.4181 96.2196 73.5341 96.3091C73.7189 96.4516 73.7676 96.4892 73.7855 96.4779C73.7919 96.4738 73.7944 96.4635 73.7977 96.4495C73.8104 96.3964 73.8357 96.2901 74.1378 96.2714C75.1442 96.3434 75.5904 96.5743 75.913 96.7413C76.1775 96.8782 76.3589 96.9721 76.6979 96.9002C76.3582 96.9726 76.1766 96.8786 75.9118 96.7416C75.5892 96.5746 75.143 96.3437 74.1367 96.2716C74.7671 97.2858 75.3679 97.4142 77.2965 97.8265L77.4607 97.8617C78.9266 98.176 79.6088 97.9613 81.0305 97.3846C85.505 95.568 88.735 88.0213 90.5547 83.6029L91.8607 79.9958C92.2487 78.8888 92.6185 77.7628 92.9995 76.5275C93.0674 76.3085 93.1313 76.1286 93.1924 75.9562L93.1925 75.9561L93.1925 75.956C93.3048 75.6394 93.4081 75.3484 93.5106 74.8882L94.8622 69.1723C94.9754 68.5127 95.1217 67.9316 95.2671 67.3543L95.2671 67.3542C95.4442 66.6508 95.62 65.953 95.7328 65.1256C96.9188 56.4473 97.8639 48.1638 95.7271 39.3629C93.6418 30.7723 88.378 24.4089 79.6088 22.3908C77.6293 21.9353 73.9197 21.9569 71.3921 22.0649C70.2008 22.1158 69.3614 22.4021 68.4705 22.7061C68.1499 22.8154 67.8226 22.9271 67.4698 23.0308C67.2581 23.0928 67.0189 23.1428 66.7652 23.1959C66.4407 23.2639 66.0923 23.3368 65.747 23.4459C65.3393 23.5738 65.0508 23.7042 64.7659 23.8329C64.5304 23.9394 64.2973 24.0448 64.0015 24.1466C63.8015 24.2153 63.6476 24.2669 63.5244 24.3083C63.288 24.3876 63.1647 24.429 63.0457 24.4803C62.9158 24.5363 62.7911 24.604 62.5303 24.7457C62.4594 24.7842 62.3784 24.8282 62.2846 24.8789C60.3315 25.9385 59.9648 25.7325 58.9752 25.1767C58.5994 24.9656 58.1338 24.7041 57.4574 24.4423C49.9485 21.5329 41.5788 22.5091 35.0491 26.6161C32.5357 28.1975 29.8238 31.1529 28.1968 33.8601C23.8365 41.1159 23.5067 49.7135 24.403 57.8283C24.6145 59.7454 24.5904 60.3527 24.5733 60.7857C24.5457 61.4807 24.536 61.727 25.5464 66.2184C27.83 76.3804 30.8286 84.7186 36.5163 93.0107C37.8751 94.9929 39.1654 96.5383 41.3948 97.3226C41.7518 97.4484 42.0319 97.5567 42.264 97.6465L42.2641 97.6466C43.2272 98.0192 43.3659 98.0729 44.7576 97.7235C45.2813 97.592 45.6669 97.5082 45.98 97.4402C46.8794 97.2449 47.1806 97.1795 48.4384 96.4865ZM54.6915 85.3831L54.6923 85.3826C54.1443 84.0516 54.4608 83.4981 54.8326 82.8479C55.0193 82.5215 55.2199 82.1708 55.332 81.6851C55.6935 80.1152 56.0929 79.4154 56.4979 78.7058C56.7868 78.1996 57.0786 77.6885 57.3614 76.853C57.9327 75.1661 58.3236 74.7862 58.9014 74.2247C59.239 73.8966 59.6405 73.5065 60.179 72.7575L60.1779 72.7575C59.6394 73.5067 59.238 73.8968 58.9003 74.2249C58.3225 74.7864 57.9317 75.1662 57.3605 76.8532C57.0776 77.6886 56.7859 78.1997 56.497 78.7058C56.0919 79.4154 55.6924 80.1153 55.3308 81.6855C55.2187 82.1711 55.0182 82.5218 54.8315 82.8481C54.4597 83.4983 54.1431 84.0518 54.6915 85.3831ZM68.8932 85.6968C68.8712 85.7305 68.8514 85.7608 68.8287 85.7643C68.8509 85.76 68.8704 85.7301 68.892 85.697L68.892 85.697C68.9193 85.6552 68.95 85.6082 68.9937 85.6007C68.9506 85.6088 68.9202 85.6554 68.8932 85.6968Z" fill="url(#paint0_linear_314_43)"/>
<defs>
<linearGradient id="paint0_linear_314_43" x1="60.5" y1="22" x2="60.5" y2="98.0065" gradientUnits="userSpaceOnUse">
<stop stop-color="#00ADE8"/>
<stop offset="1" stop-color="#00B45D"/>
</linearGradient>
</defs>
</svg>
