<svg width="45" height="45" viewBox="0 0 45 45" fill="none" xmlns="http://www.w3.org/2000/svg">
<circle cx="22.5" cy="22.5" r="22" stroke="#BDBDBD"/>
<g clip-path="url(#clip0_22:98)">
<path d="M27.941 13H16.0494C15.8038 13 15.6045 13.2102 15.6045 13.4697V31.06C15.6041 31.4124 15.7906 31.7353 16.0875 31.8964C16.3845 32.0573 16.7419 32.0292 17.0129 31.8235L21.9952 28.0535L26.9778 31.8234C27.2489 32.0287 27.6059 32.0565 27.9028 31.8956C28.1995 31.7347 28.3861 31.412 28.3861 31.06V13.4697C28.3861 13.2102 28.1868 13 27.941 13ZM27.4961 31.0598L22.2547 27.0938C22.0997 26.9766 21.8911 26.9766 21.7362 27.0938L16.4947 31.06V13.9393H27.4961V31.0598Z" fill="#BDBDBD"/>
</g>
<defs>
<clipPath id="clip0_22:98">
<rect width="18" height="19" fill="white" transform="translate(13 13)"/>
</clipPath>
</defs>
</svg>
