<svg width="45" height="46" viewBox="0 0 45 46" fill="none" xmlns="http://www.w3.org/2000/svg">
<circle cx="22.5" cy="23.2974" r="22" stroke="#00B45D"/>
<g clip-path="url(#clip0_22:166)">
<path d="M27.941 13.7974H16.0494C15.8038 13.7974 15.6045 14.0076 15.6045 14.267V31.8573C15.6041 32.2098 15.7906 32.5327 16.0875 32.6937C16.3845 32.8546 16.7419 32.8266 17.0129 32.6209L21.9952 28.8509L26.9778 32.6207C27.2489 32.826 27.6059 32.8539 27.9028 32.693C28.1995 32.5321 28.3861 32.2094 28.3861 31.8573V14.267C28.3861 14.0076 28.1868 13.7974 27.941 13.7974ZM27.4961 31.8571L22.2547 27.8912C22.0997 27.774 21.8911 27.774 21.7362 27.8912L16.4947 31.8573V14.7367H27.4961V31.8571Z" fill="#00B45D"/>
</g>
<defs>
<clipPath id="clip0_22:166">
<rect width="18" height="19" fill="white" transform="translate(13 13.7974)"/>
</clipPath>
</defs>
</svg>
