<svg width="76" height="50" viewBox="0 0 76 50" fill="none" xmlns="http://www.w3.org/2000/svg">
<path d="M70.6797 21.3429L68.7116 13.4705C69.2497 13.3562 69.6534 12.8788 69.6534 12.3069V11.0376C69.6534 8.28173 67.4113 6.03973 64.6555 6.03973H55.6911V3.42159C55.6911 2.06547 54.5879 0.96228 53.2318 0.96228H7.53647C6.18034 0.96228 5.07716 2.06547 5.07716 3.42159V25C5.07716 25.6571 5.6099 26.19 6.26718 26.19C6.92431 26.19 7.4572 25.6572 7.4572 25V3.42159C7.4572 3.3778 7.49268 3.34233 7.53647 3.34233H53.2316C53.2754 3.34233 53.3109 3.3778 53.3109 3.42159V25.0003C53.3109 25.6574 53.8436 26.1903 54.5009 26.1903C55.158 26.1903 55.6909 25.6575 55.6909 25.0003V23.6512H69.7285C69.7297 23.6512 69.7306 23.6515 69.7316 23.6515C69.7328 23.6515 69.7339 23.6514 69.7349 23.6514C71.4623 23.6526 72.929 24.7864 73.4328 26.3487H69.7325C69.0754 26.3487 68.5425 26.8814 68.5425 27.5387V30.0773C68.5425 32.1333 70.2151 33.8059 72.2711 33.8059H73.6198V39.0417H70.5083C69.4861 36.0903 66.6805 33.9644 63.3859 33.9644C60.0914 33.9644 57.2856 36.0903 56.2636 39.0417H55.6906V30.0771C55.6906 29.42 55.1579 28.8871 54.5006 28.8871C53.8435 28.8871 53.3106 29.4198 53.3106 30.0771V39.0414H28.6213C27.5991 36.09 24.7935 33.9641 21.4989 33.9641C18.2044 33.9641 15.3986 36.09 14.3766 39.0414H7.53647C7.49268 39.0414 7.4572 39.0059 7.4572 38.9621V36.3441H12.6138C13.2709 36.3441 13.8038 35.8114 13.8038 35.1541C13.8038 34.4968 13.2711 33.9641 12.6138 33.9641H1.19002C0.532891 33.9641 0 34.4968 0 35.1541C0 35.8114 0.532742 36.3441 1.19002 36.3441H5.0773V38.9621C5.0773 40.3183 6.18049 41.4214 7.53662 41.4214H13.9646C13.9643 41.4479 13.9625 41.4741 13.9625 41.5007C13.9625 45.6564 17.3434 49.0372 21.4989 49.0372C25.6545 49.0372 29.0354 45.6564 29.0354 41.5007C29.0354 41.474 29.0336 41.4479 29.0333 41.4214H55.8515C55.8512 41.4479 55.8495 41.4741 55.8495 41.5007C55.8495 45.6564 59.2304 49.0372 63.3859 49.0372C67.5414 49.0372 70.9224 45.6564 70.9224 41.5007C70.9224 41.474 70.9206 41.4479 70.9203 41.4214H74.8098C75.467 41.4214 75.9998 40.8887 75.9998 40.2314V27.5384C76 24.4046 73.6878 21.8008 70.6797 21.3429ZM55.6911 8.41963H64.6555C66.0991 8.41963 67.2735 9.59407 67.2735 11.0376V11.1169H55.6911V8.41963ZM55.6911 21.2714V13.4968H66.265L68.2087 21.2714H55.6911ZM21.4989 46.6576C18.6556 46.6576 16.3424 44.3445 16.3424 41.501C16.3424 38.6575 18.6556 36.3444 21.4989 36.3444C24.3423 36.3444 26.6555 38.6575 26.6555 41.501C26.6555 44.3445 24.3423 46.6576 21.4989 46.6576ZM63.3862 46.6576C60.5429 46.6576 58.2297 44.3445 58.2297 41.501C58.2297 38.6575 60.5429 36.3444 63.3862 36.3444C66.2295 36.3444 68.5428 38.6575 68.5428 41.501C68.5428 44.3445 66.2295 46.6576 63.3862 46.6576ZM73.6201 31.4258H72.2714C71.5277 31.4258 70.9227 30.8208 70.9227 30.0771V28.7284H73.62V31.4258H73.6201Z" fill="#00B45D"/>
</svg>
