<svg width="19" height="20" viewBox="0 0 19 20" fill="none" xmlns="http://www.w3.org/2000/svg">
<path d="M6.06071 15.1343C4.9652 15.1343 4.07715 16.0224 4.07715 17.1178C4.07715 18.2134 4.96524 19.1014 6.06071 19.1014C7.15623 19.1014 8.04428 18.2133 8.04428 17.1178C8.04432 16.0224 7.15623 15.1343 6.06071 15.1343ZM6.06071 18.2199C5.4521 18.2199 4.95874 17.7265 4.95874 17.1179C4.95874 16.5093 5.4521 16.0159 6.06071 16.0159C6.66932 16.0159 7.16268 16.5093 7.16268 17.1179C7.16273 17.7265 6.66932 18.2199 6.06071 18.2199Z" fill="#03A3DA"/>
<path d="M14.4367 15.1343C13.3412 15.1343 12.4531 16.0224 12.4531 17.1178C12.4531 18.2134 13.3412 19.1014 14.4367 19.1014C15.5322 19.1014 16.4203 18.2133 16.4203 17.1178C16.4203 16.0224 15.5322 15.1343 14.4367 15.1343ZM14.4367 18.2199C13.8281 18.2199 13.3347 17.7265 13.3347 17.1179C13.3347 16.5093 13.8281 16.0159 14.4367 16.0159C15.0453 16.0159 15.5387 16.5093 15.5387 17.1179C15.5387 17.7265 15.0453 18.2199 14.4367 18.2199Z" fill="#03A3DA"/>
<path d="M18.9102 3.56342C18.8184 3.46314 18.6928 3.40037 18.5575 3.38708L4.20962 3.18872L3.8129 1.97652C3.53342 1.16618 2.77459 0.619116 1.91746 0.610046H0.440797C0.197344 0.610046 0 0.80739 0 1.05084C0 1.2943 0.197344 1.49164 0.440797 1.49164H1.91746C2.39673 1.50223 2.81876 1.80997 2.97539 2.26305L5.77445 10.7043L5.55407 11.2112C5.30826 11.8451 5.38208 12.5585 5.75243 13.1287C6.11923 13.6886 6.73632 14.0342 7.40543 14.0543H15.9789C16.2224 14.0543 16.4197 13.857 16.4197 13.6135C16.4197 13.3701 16.2224 13.1727 15.9789 13.1727H7.40539C7.02753 13.1633 6.67971 12.9645 6.47971 12.6438C6.28194 12.327 6.24132 11.9367 6.36952 11.5858L6.54586 11.1891L15.8246 10.2194C16.8438 10.1071 17.6822 9.36583 17.9184 8.36802L18.9764 3.93802C19.024 3.81046 18.9987 3.66698 18.9102 3.56342ZM17.0588 8.1697C16.9158 8.81202 16.3704 9.2858 15.7144 9.33782L6.54586 10.2855L4.49614 4.07032L18.0065 4.26867L17.0588 8.1697Z" fill="#03A3DA"/>
</svg>
