<svg width="45" height="46" viewBox="0 0 45 46" fill="none" xmlns="http://www.w3.org/2000/svg">
<g clip-path="url(#clip0_22:175)">
<path d="M19.0607 28.5759C17.9652 28.5759 17.0771 29.464 17.0771 30.5595C17.0771 31.655 17.9652 32.5431 19.0607 32.5431C20.1562 32.5431 21.0443 31.655 21.0443 30.5595C21.0443 29.464 20.1562 28.5759 19.0607 28.5759ZM19.0607 31.6615C18.4521 31.6615 17.9587 31.1681 17.9587 30.5595C17.9587 29.9509 18.4521 29.4576 19.0607 29.4576C19.6693 29.4576 20.1627 29.9509 20.1627 30.5595C20.1627 31.1681 19.6693 31.6615 19.0607 31.6615Z" fill="#03A3DA"/>
<path d="M27.4367 28.5759C26.3412 28.5759 25.4531 29.464 25.4531 30.5595C25.4531 31.655 26.3412 32.5431 27.4367 32.5431C28.5322 32.5431 29.4203 31.655 29.4203 30.5595C29.4203 29.464 28.5322 28.5759 27.4367 28.5759ZM27.4367 31.6615C26.8281 31.6615 26.3347 31.1681 26.3347 30.5595C26.3347 29.9509 26.8281 29.4576 27.4367 29.4576C28.0453 29.4576 28.5387 29.9509 28.5387 30.5595C28.5387 31.1681 28.0453 31.6615 27.4367 31.6615Z" fill="#03A3DA"/>
<path d="M31.9102 17.0051C31.8184 16.9048 31.6928 16.842 31.5575 16.8287L17.2096 16.6304L16.8129 15.4182C16.5334 14.6078 15.7746 14.0608 14.9175 14.0517H13.4408C13.1973 14.0517 13 14.249 13 14.4925C13 14.7359 13.1973 14.9333 13.4408 14.9333H14.9175C15.3967 14.9439 15.8188 15.2516 15.9754 15.7047L18.7745 24.1459L18.5541 24.6528C18.3083 25.2867 18.3821 26.0002 18.7524 26.5703C19.1192 27.1303 19.7363 27.4759 20.4054 27.496H28.9789C29.2224 27.496 29.4197 27.2986 29.4197 27.0552C29.4197 26.8117 29.2224 26.6144 28.9789 26.6144H20.4054C20.0275 26.6049 19.6797 26.4062 19.4797 26.0854C19.2819 25.7686 19.2413 25.3783 19.3695 25.0275L19.5459 24.6308L28.8246 23.661C29.8438 23.5488 30.6822 22.8075 30.9184 21.8097L31.9764 17.3797C32.024 17.2521 31.9987 17.1086 31.9102 17.0051ZM30.0588 21.6114C29.9158 22.2537 29.3704 22.7275 28.7144 22.7795L19.5459 23.7272L17.4961 17.512L31.0065 17.7103L30.0588 21.6114Z" fill="#03A3DA"/>
</g>
<circle cx="22.5" cy="23.2974" r="22" stroke="#00ADE8"/>
<defs>
<clipPath id="clip0_22:175">
<rect width="19" height="19" fill="white" transform="translate(13 13.7974)"/>
</clipPath>
</defs>
</svg>
