<svg width="52" height="50" viewBox="0 0 52 50" fill="none" xmlns="http://www.w3.org/2000/svg">
<g clip-path="url(#clip0_22:86)">
<path d="M19.0607 32.7786C17.9652 32.7786 17.0771 33.6667 17.0771 34.7621C17.0771 35.8576 17.9652 36.7457 19.0607 36.7457C20.1562 36.7457 21.0443 35.8576 21.0443 34.7621C21.0443 33.6667 20.1562 32.7786 19.0607 32.7786ZM19.0607 35.8641C18.4521 35.8641 17.9587 35.3708 17.9587 34.7622C17.9587 34.1536 18.4521 33.6602 19.0607 33.6602C19.6693 33.6602 20.1627 34.1536 20.1627 34.7622C20.1627 35.3708 19.6693 35.8641 19.0607 35.8641Z" fill="#03A3DA"/>
<path d="M27.4367 32.7786C26.3412 32.7786 25.4531 33.6667 25.4531 34.7621C25.4531 35.8576 26.3412 36.7457 27.4367 36.7457C28.5322 36.7457 29.4203 35.8576 29.4203 34.7621C29.4203 33.6667 28.5322 32.7786 27.4367 32.7786ZM27.4367 35.8641C26.8281 35.8641 26.3347 35.3708 26.3347 34.7622C26.3347 34.1536 26.8281 33.6602 27.4367 33.6602C28.0453 33.6602 28.5387 34.1536 28.5387 34.7622C28.5387 35.3708 28.0453 35.8641 27.4367 35.8641Z" fill="#03A3DA"/>
<path d="M31.9102 21.2078C31.8184 21.1075 31.6928 21.0447 31.5575 21.0314L17.2096 20.8331L16.8129 19.6209C16.5334 18.8105 15.7746 18.2635 14.9175 18.2544H13.4408C13.1973 18.2544 13 18.4517 13 18.6952C13 18.9386 13.1973 19.136 13.4408 19.136H14.9175C15.3967 19.1466 15.8188 19.4543 15.9754 19.9074L18.7745 28.3486L18.5541 28.8555C18.3083 29.4894 18.3821 30.2029 18.7524 30.773C19.1192 31.333 19.7363 31.6786 20.4054 31.6987H28.9789C29.2224 31.6987 29.4197 31.5013 29.4197 31.2579C29.4197 31.0144 29.2224 30.8171 28.9789 30.8171H20.4054C20.0275 30.8076 19.6797 30.6089 19.4797 30.2881C19.2819 29.9713 19.2413 29.581 19.3695 29.2302L19.5459 28.8335L28.8246 27.8637C29.8438 27.7515 30.6822 27.0102 30.9184 26.0124L31.9764 21.5824C32.024 21.4548 31.9987 21.3113 31.9102 21.2078ZM30.0588 25.814C29.9158 26.4564 29.3704 26.9302 28.7144 26.9822L19.5459 27.9299L17.4961 21.7147L31.0065 21.913L30.0588 25.814Z" fill="#03A3DA"/>
</g>
<circle cx="22.5" cy="27.5" r="22" stroke="#00ADE8"/>
<circle cx="42" cy="10" r="10" fill="#03A3DA"/>
<path d="M44.964 11.88V13H39.938V11.88H41.926V6.42C41.842 6.532 41.7113 6.65333 41.534 6.784C41.3567 6.90533 41.156 7.022 40.932 7.134C40.708 7.246 40.484 7.33933 40.26 7.414C40.036 7.47933 39.8307 7.512 39.644 7.512V6.336C39.8493 6.336 40.0733 6.28 40.316 6.168C40.568 6.04667 40.8107 5.90667 41.044 5.748C41.2773 5.58933 41.4733 5.44 41.632 5.3C41.8 5.16 41.898 5.062 41.926 5.006H43.186V11.88H44.964Z" fill="white"/>
<defs>
<clipPath id="clip0_22:86">
<rect width="19" height="19" fill="white" transform="translate(13 18)"/>
</clipPath>
</defs>
</svg>
