<svg width="14" height="20" viewBox="0 0 14 20" fill="none" xmlns="http://www.w3.org/2000/svg">
<path d="M12.941 0.797119H1.04944C0.80385 0.797119 0.604493 1.00737 0.604493 1.26679V18.8571C0.604145 19.2095 0.790641 19.5324 1.0875 19.6935C1.38454 19.8544 1.74189 19.8263 2.01286 19.6207L6.99522 15.8507L11.9778 19.6205C12.2489 19.8258 12.6059 19.8537 12.9028 19.6928C13.1995 19.5319 13.3861 19.2091 13.3861 18.8571V1.26679C13.3861 1.00737 13.1868 0.797119 12.941 0.797119ZM12.4961 18.8569L7.25472 14.891C7.09968 14.7737 6.89111 14.7737 6.73625 14.891L1.49473 18.8571V1.73645H12.4961V18.8569Z" fill="#00B45D"/>
</svg>
