<svg width="12" height="19" viewBox="0 0 12 19" fill="none" xmlns="http://www.w3.org/2000/svg">
<path d="M1.27082 10.2925H3.46315V18.8666C3.46315 19.0359 3.60753 19.1731 3.78573 19.1731H7.50289C7.68108 19.1731 7.82547 19.0359 7.82547 18.8666V10.3329H10.3457C10.5096 10.3329 10.6475 10.2161 10.6662 10.0614L11.049 6.90486C11.0595 6.81801 11.0305 6.73104 10.9693 6.66589C10.9081 6.60067 10.8205 6.56335 10.7286 6.56335H7.8256V4.58465C7.8256 3.98817 8.16366 3.68571 8.8305 3.68571C8.92553 3.68571 10.7286 3.68571 10.7286 3.68571C10.9068 3.68571 11.0511 3.54848 11.0511 3.37925V0.481815C11.0511 0.312531 10.9068 0.175363 10.7286 0.175363H8.11276C8.09431 0.174505 8.05334 0.173096 7.99295 0.173096C7.53908 0.173096 5.96147 0.257738 4.71527 1.34687C3.3345 2.5538 3.52644 3.9989 3.57231 4.24945V6.56329H1.27082C1.09263 6.56329 0.948242 6.70045 0.948242 6.86974V9.98598C0.948242 10.1553 1.09263 10.2925 1.27082 10.2925Z" fill="white"/>
</svg>
