<svg width="130" height="16" viewBox="0 0 130 16" fill="none" xmlns="http://www.w3.org/2000/svg">
<g opacity="0.6" clip-path="url(#clip0_22:558)">
<path fill-rule="evenodd" clip-rule="evenodd" d="M32.0988 2.4176L27.3457 13.2719H28.1324L29.4182 10.2537H35.4372L36.7329 13.2684H37.5659L32.8128 2.4141L32.0988 2.4176ZM29.7487 9.52194L32.4492 3.29295L35.1298 9.52194H29.7487ZM51.5641 5.54785C51.5678 5.17291 51.5016 4.80087 51.3695 4.45301C51.2373 4.10515 51.0418 3.78829 50.794 3.52054C50.1825 2.87629 49.1809 2.47012 47.9282 2.47012H43.6577V13.2194H44.4146V8.76564H47.7464L50.989 13.2194H51.9508L48.5893 8.62559C50.3048 8.38049 51.5641 7.35108 51.5641 5.55486V5.54785ZM44.408 8.03735V3.21942H47.8852C49.7329 3.21942 50.8105 4.12629 50.8105 5.56886C50.8105 7.1515 49.5445 8.05836 47.8357 8.05836L44.408 8.03735ZM66.2829 2.46662H65.2516L58.7632 9.52194V2.46662H58.0063V13.2194H58.7632V10.4848L61.2951 7.77124L65.483 13.2089H66.4746L61.8471 7.20402L66.2829 2.46662ZM85.8639 3.21942H89.4138V13.2334H90.1708V3.21942H93.7174V2.46662H85.8639V3.21942ZM99.8026 13.2334H100.56V2.46662H99.8026V13.2334ZM114.386 11.8329L107.359 2.46662H106.645V13.2194H107.372V3.6641L114.545 13.2194H115.113V2.46662H114.386V11.8329ZM126.001 7.63119V8.33147H129.306V11.3322C128.417 12.0937 127.31 12.5145 126.166 12.5261C123.522 12.5261 121.942 10.5128 121.942 7.80976C121.942 5.25724 123.618 3.11088 126.011 3.11088C127.181 3.06805 128.32 3.51886 129.177 4.36438L129.657 3.78315C128.667 2.85119 127.377 2.35844 126.054 2.4071C123.112 2.4071 121.182 4.99113 121.182 7.80976C121.182 10.7789 123.026 13.2124 126.14 13.2124C127.567 13.2008 128.943 12.6438 130.014 11.6438V7.62419L126.001 7.63119ZM72.5333 3.23693H79.8051V2.46312H72.5333V3.23693ZM77.5806 7.48413H72.5333V8.25094H77.5806V7.48413ZM72.5333 13.2194H79.8051V12.4526H72.5333V13.2194Z" fill="white"/>
<path fill-rule="evenodd" clip-rule="evenodd" d="M16.8571 0.0683594L13.4923 6.1748L10.1439 0.0683594H6.08496V9.14049C7.34171 10.3172 8.70076 11.3653 10.1439 12.2707V7.77144L13.3105 13.3737H13.6741L16.8571 7.77144V15.0684H20.8963V0.0683594H16.8571Z" fill="white"/>
<path fill-rule="evenodd" clip-rule="evenodd" d="M4.05899 6.98363V0.0683594H0C0.97292 2.60065 2.3455 4.93911 4.05899 6.98363Z" fill="white"/>
<path fill-rule="evenodd" clip-rule="evenodd" d="M0 8.77271V15.0752H4.05899V11.7384C2.63403 10.8652 1.27677 9.87351 0 8.77271H0Z" fill="white"/>
<path fill-rule="evenodd" clip-rule="evenodd" d="M6.08496 12.8767V15.0686H10.144V14.5959C8.75487 14.1235 7.39858 13.549 6.08496 12.8767Z" fill="white"/>
</g>
<defs>
<clipPath id="clip0_22:558">
<rect width="130" height="15" fill="white" transform="translate(0 0.0683594)"/>
</clipPath>
</defs>
</svg>
