<svg width="20" height="20" viewBox="0 0 20 20" fill="none" xmlns="http://www.w3.org/2000/svg">
<path d="M10.1968 20.0005C10.1306 20.0005 10.0644 20.0005 9.99771 20.0001C8.43002 20.004 6.98151 19.9641 5.57281 19.8784C4.28131 19.7998 3.10242 19.3535 2.16339 18.5878C1.25732 17.849 0.63858 16.85 0.324402 15.6189C0.0509644 14.5471 0.0364685 13.495 0.022583 12.4774C0.0125122 11.7473 0.00213623 10.8821 0 10.0023C0.00213623 9.11879 0.0125122 8.25361 0.022583 7.52348C0.0364685 6.50602 0.0509644 5.45393 0.324402 4.382C0.63858 3.15092 1.25732 2.15192 2.16339 1.41309C3.10242 0.647405 4.28131 0.201085 5.57297 0.122503C6.98166 0.0369007 8.43048 -0.00307735 10.0015 0.000737349C11.5697 -0.00261959 13.0177 0.0369007 14.4264 0.122503C15.7179 0.201085 16.8968 0.647405 17.8358 1.41309C18.7421 2.15192 19.3607 3.15092 19.6748 4.382C19.9483 5.45378 19.9628 6.50602 19.9767 7.52348C19.9867 8.25361 19.9973 9.11879 19.9992 9.99861V10.0023C19.9973 10.8821 19.9867 11.7473 19.9767 12.4774C19.9628 13.4949 19.9484 14.547 19.6748 15.6189C19.3607 16.85 18.7421 17.849 17.8358 18.5878C16.8968 19.3535 15.7179 19.7998 14.4264 19.8784C13.0774 19.9605 11.6916 20.0005 10.1968 20.0005ZM9.99771 18.4376C11.5399 18.4413 12.9559 18.4024 14.3315 18.3188C15.3081 18.2594 16.1548 17.9425 16.8484 17.3769C17.4896 16.8539 17.9312 16.1325 18.1609 15.2325C18.3885 14.3403 18.4016 13.3824 18.4143 12.456C18.4242 11.7308 18.4346 10.8717 18.4367 10.0004C18.4346 9.12901 18.4242 8.27009 18.4143 7.54484C18.4016 6.61848 18.3885 5.66053 18.1609 4.7682C17.9312 3.86823 17.4896 3.1468 16.8484 2.62388C16.1548 2.05839 15.3081 1.74146 14.3315 1.6821C12.9559 1.59833 11.5399 1.55973 10.0014 1.56309C8.45947 1.55942 7.0433 1.59833 5.66772 1.6821C4.69116 1.74146 3.84445 2.05839 3.15079 2.62388C2.50961 3.1468 2.06802 3.86823 1.83838 4.7682C1.61072 5.66053 1.5976 6.61833 1.58493 7.54484C1.57501 8.2707 1.56464 9.13023 1.5625 10.0023C1.56464 10.8705 1.57501 11.7302 1.58493 12.456C1.5976 13.3824 1.61072 14.3403 1.83838 15.2325C2.06802 16.1325 2.50961 16.8539 3.15079 17.3769C3.84445 17.9423 4.69116 18.2593 5.66772 18.3186C7.0433 18.4024 8.45978 18.4415 9.99771 18.4376ZM9.96048 14.8833C7.26822 14.8833 5.07767 12.6929 5.07767 10.0004C5.07767 7.30803 7.26822 5.11762 9.96048 5.11762C12.6529 5.11762 14.8433 7.30803 14.8433 10.0004C14.8433 12.6929 12.6529 14.8833 9.96048 14.8833ZM9.96048 6.68013C8.12973 6.68013 6.64017 8.16969 6.64017 10.0004C6.64017 11.8312 8.12973 13.3208 9.96048 13.3208C11.7914 13.3208 13.2808 11.8312 13.2808 10.0004C13.2808 8.16969 11.7914 6.68013 9.96048 6.68013ZM15.3902 3.55512C14.743 3.55512 14.2183 4.07972 14.2183 4.727C14.2183 5.37428 14.743 5.89887 15.3902 5.89887C16.0374 5.89887 16.562 5.37428 16.562 4.727C16.562 4.07972 16.0374 3.55512 15.3902 3.55512Z" fill="white"/>
</svg>
