<svg width="35" height="26" viewBox="0 0 35 26" fill="none" xmlns="http://www.w3.org/2000/svg">
<path d="M31.6598 0.164062H3.32652C1.76385 0.164062 0.493164 1.43475 0.493164 2.99742V22.8308C0.493164 24.3934 1.76385 25.6641 3.32652 25.6641H31.6599C33.2225 25.6641 34.4932 24.3934 34.4932 22.8307V2.99742C34.4932 1.43475 33.2225 0.164062 31.6598 0.164062ZM3.32652 1.58071H31.6599C31.7643 1.58071 31.8562 1.61876 31.9542 1.64027C29.5012 3.88527 21.3675 11.3262 18.5211 13.8908C18.2984 14.0914 17.9394 14.3307 17.4932 14.3307C17.047 14.3307 16.6881 14.0914 16.4646 13.8901C13.6185 11.326 5.48432 3.88461 3.03174 1.64041C3.12989 1.61889 3.22206 1.58071 3.32652 1.58071ZM1.90981 22.8307V2.99742C1.90981 2.85863 1.95164 2.73272 1.9891 2.60589C3.86654 4.32421 9.54188 9.51612 13.2218 12.8625C9.55383 16.0133 3.87703 21.3954 1.98465 23.1999C1.95125 23.0795 1.90981 22.9617 1.90981 22.8307ZM31.6598 24.2474H3.32652C3.21336 24.2474 3.11276 24.208 3.00711 24.1827C4.96257 22.3186 10.6755 16.9055 14.279 13.8228C14.7488 14.2489 15.1779 14.6374 15.5162 14.9422C16.1 15.4694 16.7834 15.7474 17.4932 15.7474C18.2029 15.7474 18.8863 15.4693 19.4694 14.9429C19.8078 14.638 20.2373 14.2491 20.7073 13.8228C24.311 16.9052 30.0232 22.3179 31.9792 24.1827C31.8736 24.208 31.7731 24.2474 31.6598 24.2474ZM33.0765 22.8307C33.0765 22.9616 33.0351 23.0795 33.0017 23.1999C31.1086 21.3945 25.4325 16.013 21.7645 12.8626C25.4446 9.51619 31.1191 4.32475 32.9972 2.60575C33.0347 2.73259 33.0765 2.85856 33.0765 2.99735V22.8307Z" fill="#00ADE8"/>
</svg>
