<svg width="34" height="35" viewBox="0 0 34 35" fill="none" xmlns="http://www.w3.org/2000/svg">
<g clip-path="url(#clip0_22:587)">
<path d="M16.9997 7.10962C17.9308 7.10962 18.8269 7.38972 19.5912 7.91964C19.8171 8.0763 19.8742 8.38781 19.7188 8.61545C19.5633 8.84309 19.2541 8.9006 19.0282 8.74401C18.4302 8.32944 17.7289 8.1103 16.9997 8.1103C15.0239 8.1103 13.4164 9.72981 13.4164 11.7205C13.4164 13.7111 15.0239 15.3307 16.9997 15.3307C18.9756 15.3307 20.583 13.7111 20.583 11.7205C20.583 11.1332 20.4477 10.5734 20.1808 10.0567C20.0542 9.81149 20.1488 9.50941 20.3921 9.38191C20.6355 9.25448 20.9352 9.34963 21.0618 9.59481C21.3983 10.2464 21.5762 10.9814 21.5762 11.7205C21.5761 14.263 19.5232 16.3314 16.9997 16.3314C14.4763 16.3314 12.4233 14.263 12.4233 11.7205C12.4233 9.17804 14.4763 7.10962 16.9997 7.10962Z" fill="#00ADE8"/>
<path d="M0.0371475 34.2215L4.9382 22.357C5.01523 22.1705 5.19605 22.049 5.3966 22.049H10.2806C9.33064 20.7542 8.53994 19.4645 7.92243 18.1982C6.82805 15.9541 6.27323 13.7747 6.27323 11.7205C6.2733 5.76178 11.0848 0.914062 16.999 0.914062C22.9133 0.914062 27.7248 5.76179 27.7248 11.7204C27.7248 13.7746 27.17 15.9541 26.0756 18.1981C25.4581 19.4645 24.6674 20.7542 23.7174 22.0489H28.6014C28.802 22.0489 28.9829 22.1705 29.0598 22.357L32.3995 30.4417C32.5049 30.6968 32.3851 30.9897 32.1319 31.0958C32.0695 31.1219 32.0049 31.1344 31.9413 31.1344C31.7468 31.1344 31.5621 31.0184 31.4827 30.8262L31.0062 29.6726H27.6257L29.3775 33.9134H32.7579L32.2501 32.684C32.1447 32.4289 32.2645 32.136 32.5177 32.0299C32.7711 31.9236 33.0617 32.0444 33.167 32.2995L33.9609 34.2215C34.0247 34.3759 34.0077 34.5523 33.9155 34.6913C33.8235 34.8305 33.6685 34.9141 33.5025 34.9141H0.495617C0.329666 34.9141 0.17461 34.8305 0.0825043 34.6913C-0.00960159 34.5523 -0.0266685 34.3759 0.0371475 34.2215ZM26.7316 11.7204C26.7316 6.31349 22.3656 1.91467 16.999 1.91467C11.6325 1.91467 7.26647 6.31356 7.26647 11.7204C7.26647 13.9877 8.0484 17.6109 11.6656 22.2279C11.6692 22.2323 11.6725 22.2368 11.6759 22.2413C11.8607 22.4768 12.0526 22.7149 12.2524 22.9556C14.2401 25.3504 16.2515 27.099 16.9991 27.7203C17.7445 27.1012 19.7465 25.3613 21.7328 22.9711C21.9375 22.7247 22.134 22.481 22.323 22.24C22.3261 22.2361 22.3289 22.2321 22.3321 22.2283C25.9492 17.6116 26.7316 13.9886 26.7316 11.7204ZM28.2703 23.0496H24.8897L26.1227 26.0344H29.5032L28.2703 23.0496ZM25.3664 33.9135L22.2625 26.3997L13.4296 33.9135H25.3664ZM11.8901 33.9135L22.14 25.1943C22.261 25.0913 22.4236 25.0527 22.5772 25.0903C22.731 25.1278 22.858 25.2371 22.9188 25.3843L26.4421 33.9134H28.3017L26.4227 29.3644C26.3589 29.21 26.3759 29.0337 26.4681 28.8946C26.5601 28.7555 26.7151 28.6719 26.8812 28.6719H30.5927L29.9165 27.035H25.7915C25.591 27.035 25.4101 26.9134 25.3331 26.7269L23.814 23.0495H22.9522C22.8026 23.2375 22.6505 23.4254 22.4944 23.6134C19.9321 26.6966 17.4091 28.6761 17.3029 28.7589C17.2134 28.8287 17.1062 28.8635 16.999 28.8635C16.8919 28.8635 16.7846 28.8287 16.6952 28.7589C16.6368 28.7134 15.848 28.0943 14.7247 27.035H9.10134C8.82709 27.035 8.60476 26.811 8.60476 26.5347C8.60476 26.2584 8.82709 26.0344 9.10134 26.0344H13.7012C13.0127 25.337 12.2602 24.5237 11.5037 23.6134C11.3475 23.4255 11.1954 23.2376 11.0459 23.0496H5.72784L4.49487 26.0344H7.11506C7.38932 26.0344 7.61165 26.2584 7.61165 26.5347C7.61165 26.811 7.38939 27.035 7.11506 27.035H4.08156L3.40541 28.6719H13.6366C13.8439 28.6719 14.0293 28.8016 14.1019 28.9972C14.1743 29.1928 14.1187 29.4132 13.9622 29.5501L8.97285 33.9135H11.8901ZM7.45772 33.9135L12.307 29.6726H2.99196L1.2401 33.9135H7.45772Z" fill="#00ADE8"/>
</g>
<defs>
<clipPath id="clip0_22:587">
<rect width="34" height="34" fill="white" transform="matrix(-1 0 0 1 34 0.914062)"/>
</clipPath>
</defs>
</svg>
