<svg width="34" height="32" viewBox="0 0 34 32" fill="none" xmlns="http://www.w3.org/2000/svg">
<path d="M31.6394 0.126709H19.4126C19.1375 0.126709 18.9146 0.349623 18.9146 0.624731C18.9146 0.899838 19.1375 1.12275 19.4126 1.12275H31.6394C32.3918 1.12275 33.0039 1.73492 33.0039 2.48733V15.3118C33.0039 16.0642 32.3918 16.6764 31.6394 16.6764H29.6865C29.5815 16.6764 29.4793 16.7095 29.3944 16.7711L25.9984 19.2307V17.1744C25.9984 16.8993 25.7755 16.6764 25.5004 16.6764H14.6907C13.9382 16.6764 13.3261 16.0642 13.3261 15.3118V2.48733C13.3261 1.73492 13.9383 1.12275 14.6907 1.12275H17.2426C17.5177 1.12275 17.7406 0.899838 17.7406 0.624731C17.7406 0.349623 17.5177 0.126709 17.2426 0.126709H14.6907C13.389 0.126709 12.3301 1.18564 12.3301 2.48733V15.3118C12.3301 16.6135 13.3891 17.6724 14.6907 17.6724H25.0024V20.2063C25.0024 20.3935 25.1073 20.5648 25.274 20.6499C25.4506 20.7341 25.6235 20.7207 25.7926 20.6097L29.8479 17.6725H31.6394C32.9411 17.6725 34 16.6135 34 15.3119V2.48733C34 1.1857 32.941 0.126709 31.6394 0.126709Z" fill="#00ADE8"/>
<path d="M28.9248 26.4507C28.8209 25.7085 28.384 25.0774 27.7249 24.7183L25.5102 23.5117C25.2687 23.3799 24.9662 23.4691 24.8346 23.7108C24.7031 23.9523 24.7922 24.2548 25.0338 24.3863L27.2482 25.5929C27.6271 25.7992 27.8782 26.1617 27.9382 26.5879C27.9385 26.5906 27.9389 26.5934 27.9393 26.596C27.9974 27.0266 27.8508 27.4466 27.5374 27.7479L27.211 28.0613L19.035 23.4609L19.9959 22.6157C20.4058 22.2551 21.0025 22.1885 21.4812 22.45L22.863 23.203C23.1045 23.3346 23.407 23.2456 23.5387 23.004C23.6702 22.7625 23.5812 22.46 23.3397 22.3284L21.9582 21.5755C21.1139 21.1145 20.0608 21.2319 19.3381 21.8677L17.0989 23.8373C16.6403 24.2407 15.9709 24.2782 15.4712 23.9281C12.0985 21.5653 9.64919 18.9659 7.98341 15.9817C7.70253 15.4778 7.78101 14.8565 8.17857 14.4355L9.95099 12.5609C10.6119 11.8611 10.7668 10.8128 10.3365 9.95227L7.35384 3.9869C7.02156 3.32147 6.41132 2.86309 5.67963 2.72923C4.94747 2.59509 4.21405 2.80805 3.66716 3.31304L2.53432 4.35962C1.2821 5.51635 0.45339 7.01228 0.137843 8.6855C-0.178301 10.3615 0.0517852 12.0522 0.803134 13.5753C0.806454 13.5824 0.809575 13.5885 0.812165 13.5935C1.28827 14.5564 1.80309 15.4979 2.34136 16.3904C2.4312 16.5406 2.52808 16.6993 2.62915 16.8622C2.77424 17.0958 3.08122 17.1677 3.31496 17.0226C3.54863 16.8776 3.62048 16.5705 3.47545 16.3368C3.37724 16.1786 3.28322 16.0245 3.19523 15.8775C2.67091 15.0081 2.1701 14.0923 1.70668 13.1554C1.70409 13.15 1.70143 13.1447 1.69871 13.1393C0.38951 10.4903 0.974453 7.23997 3.11375 5.18407L7.60505 13.5924L7.45464 13.7515C6.75682 14.4902 6.61969 15.5814 7.11353 16.4671C8.85428 19.5857 11.4011 22.293 14.8997 24.744C15.3013 25.0253 15.7652 25.164 16.2274 25.164C16.775 25.164 17.3203 24.9691 17.7568 24.5852L18.2427 24.1578L26.4605 28.7819L26.4522 28.7898C24.334 30.8249 21.1608 31.2881 18.5563 29.9423C12.911 27.0242 8.3218 23.1669 4.91606 18.4777C4.75437 18.2551 4.44294 18.2056 4.22043 18.3674C3.99784 18.5291 3.94851 18.8404 4.11013 19.063C7.60797 23.8791 12.3145 27.8372 18.0989 30.8273C19.2375 31.4156 20.4705 31.7022 21.6953 31.7022C23.6798 31.7022 25.6423 30.9494 27.1421 29.5084L28.2274 28.4663C28.7687 27.9457 29.0237 27.2223 28.9284 26.4789C28.9275 26.4694 28.9262 26.4602 28.9248 26.4507ZM3.86849 4.48306L4.34301 4.04473C4.65749 3.75435 5.07915 3.63211 5.50034 3.709C5.92094 3.78596 6.27174 4.04945 6.46285 4.43219L9.44567 10.3978C9.68963 10.8858 9.60171 11.4802 9.22707 11.8768L8.32658 12.8292L3.86849 4.48306Z" fill="#00ADE8"/>
<path d="M29.9852 9.37177C29.9852 8.41251 29.2047 7.63208 28.2455 7.63208C27.2863 7.63208 26.5059 8.41251 26.5059 9.37177C26.5059 10.331 27.2863 11.1114 28.2455 11.1114C29.2047 11.1114 29.9852 10.331 29.9852 9.37177ZM27.5018 9.37177C27.5018 8.96173 27.8354 8.62813 28.2454 8.62813C28.6555 8.62813 28.9891 8.96173 28.9891 9.37177C28.9891 9.78181 28.6555 10.1154 28.2454 10.1154C27.8354 10.1154 27.5018 9.78181 27.5018 9.37177Z" fill="#00ADE8"/>
<path d="M24.9051 9.37177C24.9051 8.41251 24.1247 7.63208 23.1655 7.63208C22.2062 7.63208 21.4258 8.41251 21.4258 9.37177C21.4258 10.331 22.2062 11.1114 23.1655 11.1114C24.1247 11.1114 24.9051 10.331 24.9051 9.37177ZM22.4218 9.37177C22.4218 8.96173 22.7554 8.62813 23.1654 8.62813C23.5754 8.62813 23.909 8.96173 23.909 9.37177C23.909 9.78181 23.5754 10.1154 23.1654 10.1154C22.7554 10.1154 22.4218 9.78181 22.4218 9.37177Z" fill="#00ADE8"/>
<path d="M16.3447 9.37177C16.3447 10.331 17.1251 11.1114 18.0844 11.1114C19.0437 11.1114 19.8241 10.331 19.8241 9.37177C19.8241 8.41251 19.0437 7.63208 18.0844 7.63208C17.1252 7.63208 16.3447 8.41251 16.3447 9.37177ZM18.0844 8.62813C18.4944 8.62813 18.8281 8.96173 18.8281 9.37177C18.8281 9.78181 18.4944 10.1154 18.0844 10.1154C17.6744 10.1154 17.3408 9.78181 17.3408 9.37177C17.3408 8.96173 17.6744 8.62813 18.0844 8.62813Z" fill="#00ADE8"/>
</svg>
