<svg width="15" height="16" viewBox="0 0 15 16" fill="none" xmlns="http://www.w3.org/2000/svg">
<path d="M14.1667 2.66663C14.1667 3.86328 13.1968 4.83337 12.0001 4.83337C10.8035 4.83337 9.8335 3.86328 9.8335 2.66663C9.8335 1.47009 10.8035 0.5 12.0001 0.5C13.1968 0.5 14.1667 1.47009 14.1667 2.66663Z" fill="#03A3DA"/>
<path d="M12.0001 5.33337C10.5294 5.33337 9.3335 4.13733 9.3335 2.66663C9.3335 1.19604 10.5294 0 12.0001 0C13.4708 0 14.6667 1.19604 14.6667 2.66663C14.6667 4.13733 13.4708 5.33337 12.0001 5.33337ZM12.0001 1C11.0808 1 10.3335 1.74805 10.3335 2.66663C10.3335 3.58533 11.0808 4.33337 12.0001 4.33337C12.9194 4.33337 13.6667 3.58533 13.6667 2.66663C13.6667 1.74805 12.9194 1 12.0001 1Z" fill="#03A3DA"/>
<path d="M14.1667 13.3334C14.1667 14.5299 13.1968 15.5 12.0001 15.5C10.8035 15.5 9.8335 14.5299 9.8335 13.3334C9.8335 12.1367 10.8035 11.1666 12.0001 11.1666C13.1968 11.1666 14.1667 12.1367 14.1667 13.3334Z" fill="#03A3DA"/>
<path d="M12.0001 16C10.5294 16 9.3335 14.804 9.3335 13.3334C9.3335 11.8627 10.5294 10.6666 12.0001 10.6666C13.4708 10.6666 14.6667 11.8627 14.6667 13.3334C14.6667 14.804 13.4708 16 12.0001 16ZM12.0001 11.6666C11.0808 11.6666 10.3335 12.4147 10.3335 13.3334C10.3335 14.252 11.0808 15 12.0001 15C12.9194 15 13.6667 14.252 13.6667 13.3334C13.6667 12.4147 12.9194 11.6666 12.0001 11.6666Z" fill="#03A3DA"/>
<path d="M4.83337 8C4.83337 9.19665 3.86328 10.1666 2.66663 10.1666C1.47009 10.1666 0.5 9.19665 0.5 8C0.5 6.80334 1.47009 5.83337 2.66663 5.83337C3.86328 5.83337 4.83337 6.80334 4.83337 8Z" fill="#03A3DA"/>
<path d="M2.66663 10.6666C1.19604 10.6666 0 9.4707 0 8C0 6.5293 1.19604 5.33337 2.66663 5.33337C4.13733 5.33337 5.33337 6.5293 5.33337 8C5.33337 9.4707 4.13733 10.6666 2.66663 10.6666ZM2.66663 6.33337C1.74731 6.33337 1 7.0813 1 8C1 8.9187 1.74731 9.66662 2.66663 9.66662C3.58606 9.66662 4.33337 8.9187 4.33337 8C4.33337 7.0813 3.58606 6.33337 2.66663 6.33337Z" fill="#03A3DA"/>
<path d="M4.24082 7.68006C4.00876 7.68006 3.78342 7.55933 3.66074 7.34339C3.47873 7.02405 3.59079 6.6167 3.91013 6.43397L10.096 2.90736C10.4154 2.72401 10.8227 2.83607 11.0055 3.15662C11.1875 3.47596 11.0754 3.88331 10.7561 4.06605L4.57004 7.59266C4.46604 7.65198 4.35276 7.68006 4.24082 7.68006Z" fill="#03A3DA"/>
<path d="M10.4259 13.1801C10.3138 13.1801 10.2005 13.152 10.0965 13.0927L3.91053 9.56604C3.59119 9.38403 3.47925 8.97668 3.66126 8.65662C3.84253 8.33667 4.25049 8.224 4.57056 8.40735L10.7566 11.934C11.0759 12.116 11.1879 12.5233 11.0058 12.8434C10.8826 13.0593 10.6572 13.1801 10.4259 13.1801V13.1801Z" fill="#03A3DA"/>
</svg>
