<svg width="40" height="40" viewBox="0 0 40 40" fill="none" xmlns="http://www.w3.org/2000/svg">
<path d="M37.1998 18.0753L36.164 13.9319C36.4472 13.8718 36.6597 13.6205 36.6597 13.3195V12.6514C36.6597 11.201 35.4796 10.021 34.0292 10.021H29.3111V8.64301C29.3111 7.92926 28.7305 7.34863 28.0167 7.34863H3.96656C3.25281 7.34863 2.67219 7.92926 2.67219 8.64301V20C2.67219 20.3459 2.95258 20.6264 3.29852 20.6264C3.64438 20.6264 3.92484 20.346 3.92484 20V8.64301C3.92484 8.61996 3.94352 8.60129 3.96656 8.60129H28.0166C28.0397 8.60129 28.0584 8.61996 28.0584 8.64301V20.0002C28.0584 20.3461 28.3388 20.6265 28.6847 20.6265C29.0305 20.6265 29.311 20.3461 29.311 20.0002V19.2902H36.6992C36.6998 19.2902 36.7003 19.2904 36.7009 19.2904C36.7015 19.2904 36.702 19.2903 36.7026 19.2903C37.6117 19.2909 38.3837 19.8876 38.6488 20.7099H36.7013C36.3555 20.7099 36.075 20.9903 36.075 21.3362V22.6723C36.075 23.7544 36.9553 24.6347 38.0374 24.6347H38.7473V27.3904H37.1096C36.5716 25.8371 35.095 24.7182 33.361 24.7182C31.627 24.7182 30.1503 25.8371 29.6124 27.3904H29.3109V22.6722C29.3109 22.3264 29.0305 22.0459 28.6845 22.0459C28.3387 22.0459 28.0582 22.3263 28.0582 22.6722V27.3903H15.0638C14.5259 25.8369 13.0492 24.718 11.3152 24.718C9.58125 24.718 8.10453 25.8369 7.56664 27.3903H3.96656C3.94352 27.3903 3.92484 27.3716 3.92484 27.3486V25.9707H6.63883C6.98469 25.9707 7.26516 25.6903 7.26516 25.3443C7.26516 24.9984 6.98477 24.718 6.63883 24.718H0.626328C0.280469 24.718 0 24.9984 0 25.3443C0 25.6903 0.280391 25.9707 0.626328 25.9707H2.67227V27.3486C2.67227 28.0623 3.25289 28.6429 3.96664 28.6429H7.34977C7.34961 28.6568 7.34867 28.6707 7.34867 28.6847C7.34867 30.8718 9.12813 32.6512 11.3152 32.6512C13.5023 32.6512 15.2818 30.8718 15.2818 28.6847C15.2818 28.6706 15.2809 28.6568 15.2807 28.6429H29.3955C29.3954 28.6568 29.3945 28.6707 29.3945 28.6847C29.3945 30.8718 31.1739 32.6512 33.361 32.6512C35.5481 32.6512 37.3276 30.8718 37.3276 28.6847C37.3276 28.6706 37.3266 28.6568 37.3265 28.6429H39.3736C39.7195 28.6429 39.9999 28.3625 39.9999 28.0166V21.3361C40 19.6867 38.783 18.3163 37.1998 18.0753ZM29.3111 11.2736H34.0292C34.789 11.2736 35.4071 11.8917 35.4071 12.6514V12.6932H29.3111V11.2736ZM29.3111 18.0376V13.9457H34.8763L35.8993 18.0376H29.3111ZM11.3152 31.3988C9.81875 31.3988 8.60125 30.1814 8.60125 28.6848C8.60125 27.1882 9.81875 25.9708 11.3152 25.9708C12.8117 25.9708 14.0292 27.1882 14.0292 28.6848C14.0292 30.1814 12.8117 31.3988 11.3152 31.3988ZM33.3612 31.3988C31.8647 31.3988 30.6472 30.1814 30.6472 28.6848C30.6472 27.1882 31.8647 25.9708 33.3612 25.9708C34.8577 25.9708 36.0752 27.1882 36.0752 28.6848C36.0752 30.1814 34.8577 31.3988 33.3612 31.3988ZM38.7474 23.3821H38.0376C37.6462 23.3821 37.3277 23.0636 37.3277 22.6722V21.9624H38.7473V23.3821H38.7474Z" fill="#00ADE8"/>
<path d="M11.3151 27.3903C10.6014 27.3903 10.0208 27.9709 10.0208 28.6846C10.0208 29.3984 10.6014 29.979 11.3151 29.979C12.0289 29.979 12.6095 29.3984 12.6095 28.6846C12.6095 27.9709 12.0289 27.3903 11.3151 27.3903Z" fill="#00ADE8"/>
<path d="M33.361 27.3903C32.6473 27.3903 32.0667 27.9709 32.0667 28.6846C32.0667 29.3984 32.6473 29.979 33.361 29.979C34.0748 29.979 34.6554 29.3984 34.6554 28.6846C34.6554 27.9709 34.0748 27.3903 33.361 27.3903Z" fill="#00ADE8"/>
<path d="M26.0126 24.7181H16.6598C16.3139 24.7181 16.0334 24.9985 16.0334 25.3445C16.0334 25.6904 16.3138 25.9708 16.6598 25.9708H26.0126C26.3584 25.9708 26.6389 25.6904 26.6389 25.3445C26.6389 24.9985 26.3585 24.7181 26.0126 24.7181Z" fill="#00ADE8"/>
<path d="M9.97923 22.0459H1.96251C1.61665 22.0459 1.33618 22.3263 1.33618 22.6722C1.33618 23.0182 1.61657 23.2986 1.96251 23.2986H9.97923C10.3251 23.2986 10.6056 23.0182 10.6056 22.6722C10.6056 22.3263 10.3251 22.0459 9.97923 22.0459Z" fill="#00ADE8"/>
<path d="M21.7792 13.5446C21.5346 13.3001 21.138 13.3001 20.8935 13.5447L15.3238 19.1143L12.4263 16.2169C12.1817 15.9722 11.7852 15.9722 11.5406 16.2169C11.296 16.4615 11.296 16.858 11.5406 17.1026L14.881 20.4429C15.0032 20.5652 15.1635 20.6263 15.3238 20.6263C15.484 20.6263 15.6444 20.5652 15.7666 20.4429L21.7791 14.4304C22.0237 14.1857 22.0237 13.7892 21.7792 13.5446Z" fill="#00ADE8"/>
</svg>
