<svg width="19" height="19" viewBox="0 0 19 19" fill="none" xmlns="http://www.w3.org/2000/svg">
<g clip-path="url(#clip0_22:87)">
<path d="M6.06071 14.7786C4.9652 14.7786 4.07715 15.6667 4.07715 16.7621C4.07715 17.8576 4.96524 18.7457 6.06071 18.7457C7.15623 18.7457 8.04428 17.8576 8.04428 16.7621C8.04432 15.6667 7.15623 14.7786 6.06071 14.7786ZM6.06071 17.8641C5.4521 17.8641 4.95874 17.3708 4.95874 16.7622C4.95874 16.1536 5.4521 15.6602 6.06071 15.6602C6.66932 15.6602 7.16268 16.1536 7.16268 16.7622C7.16273 17.3708 6.66932 17.8641 6.06071 17.8641Z" fill="#03A3DA"/>
<path d="M14.4367 14.7786C13.3412 14.7786 12.4531 15.6667 12.4531 16.7621C12.4531 17.8576 13.3412 18.7457 14.4367 18.7457C15.5322 18.7457 16.4203 17.8576 16.4203 16.7621C16.4203 15.6667 15.5322 14.7786 14.4367 14.7786ZM14.4367 17.8641C13.8281 17.8641 13.3347 17.3708 13.3347 16.7622C13.3347 16.1536 13.8281 15.6602 14.4367 15.6602C15.0453 15.6602 15.5387 16.1536 15.5387 16.7622C15.5387 17.3708 15.0453 17.8641 14.4367 17.8641Z" fill="#03A3DA"/>
<path d="M18.9102 3.20776C18.8184 3.10749 18.6928 3.04472 18.5575 3.03143L4.20962 2.83307L3.8129 1.62087C3.53342 0.810527 2.77459 0.263464 1.91746 0.254395H0.440797C0.197344 0.254395 0 0.451739 0 0.695192C0 0.938645 0.197344 1.13599 0.440797 1.13599H1.91746C2.39673 1.14658 2.81876 1.45432 2.97539 1.90739L5.77445 10.3486L5.55407 10.8555C5.30826 11.4894 5.38208 12.2029 5.75243 12.773C6.11923 13.333 6.73632 13.6786 7.40543 13.6987H15.9789C16.2224 13.6987 16.4197 13.5013 16.4197 13.2579C16.4197 13.0144 16.2224 12.8171 15.9789 12.8171H7.40539C7.02753 12.8076 6.67971 12.6089 6.47971 12.2881C6.28194 11.9713 6.24132 11.581 6.36952 11.2302L6.54586 10.8335L15.8246 9.86372C16.8438 9.75146 17.6822 9.01018 17.9184 8.01236L18.9764 3.58237C19.024 3.4548 18.9987 3.31133 18.9102 3.20776ZM17.0588 7.81405C16.9158 8.45637 16.3704 8.93015 15.7144 8.98217L6.54586 9.92987L4.49614 3.71467L18.0065 3.91302L17.0588 7.81405Z" fill="#03A3DA"/>
</g>
<defs>
<clipPath id="clip0_22:87">
<rect width="19" height="19" fill="white"/>
</clipPath>
</defs>
</svg>
