<svg width="19" height="17" viewBox="0 0 19 17" fill="none" xmlns="http://www.w3.org/2000/svg">
<path d="M0.335596 8.16067L4.71358 9.79467L6.40812 15.2443C6.51655 15.5933 6.94335 15.7223 7.22664 15.4907L9.667 13.5013C9.9228 13.2929 10.2872 13.2825 10.5545 13.4765L14.956 16.6722C15.2591 16.8924 15.6884 16.7264 15.7644 16.3602L18.9888 0.850415C19.0717 0.450402 18.6787 0.116698 18.2978 0.264012L0.330466 7.19527C-0.112931 7.36627 -0.109067 7.99404 0.335596 8.16067ZM6.13503 8.92484L14.6912 3.65507C14.845 3.56064 15.0032 3.76856 14.8712 3.89105L7.80982 10.4549C7.56161 10.686 7.4015 10.9951 7.35616 11.3308L7.11562 13.1133C7.08376 13.3513 6.74942 13.375 6.68375 13.1446L5.75864 9.89404C5.65268 9.52328 5.80709 9.12726 6.13503 8.92484Z" fill="white"/>
</svg>
