<svg width="14" height="19" viewBox="0 0 14 19" fill="none" xmlns="http://www.w3.org/2000/svg">
<path d="M12.941 0H1.04944C0.80385 0 0.604493 0.210249 0.604493 0.469667V18.06C0.604145 18.4124 0.790641 18.7353 1.0875 18.8964C1.38454 19.0573 1.74189 19.0292 2.01286 18.8235L6.99522 15.0535L11.9778 18.8234C12.2489 19.0287 12.6059 19.0565 12.9028 18.8956C13.1995 18.7347 13.3861 18.412 13.3861 18.06V0.469667C13.3861 0.210249 13.1868 0 12.941 0ZM12.4961 18.0598L7.25472 14.0938C7.09968 13.9766 6.89111 13.9766 6.73625 14.0938L1.49473 18.06V0.939333H12.4961V18.0598Z" fill="#00B45D"/>
</svg>
