<svg width="67" height="67" viewBox="0 0 67 67" fill="none" xmlns="http://www.w3.org/2000/svg">
<path d="M31.0407 33.6954C31.869 32.5341 32.516 31.2352 32.9412 29.8403C35.0778 29.3437 36.6767 27.339 36.695 25.0106C37.4905 24.3728 38.0012 23.3939 38.0012 22.2975C38.0012 21.2015 37.4909 20.2228 36.6959 19.5852V6.20168C36.6959 5.01819 36.283 3.87657 35.5332 2.98751C33.9213 1.07553 31.2195 0.769059 29.2492 2.27342L28.6156 2.75733C27.7016 1.08404 25.9802 0 24.0645 0H18.3908C17.8487 0 17.4094 0.439294 17.4094 0.981443C17.4094 1.52359 17.8487 1.96289 18.3908 1.96289H24.0645C25.5466 1.96289 26.8477 3.03135 27.2284 4.56136C27.3082 4.88196 27.5441 5.14106 27.856 5.25046C28.1677 5.35999 28.5139 5.30477 28.7764 5.10442L30.4406 3.83352C31.564 2.97574 33.1081 3.15619 34.0327 4.25266C34.4844 4.7884 34.7332 5.48064 34.7332 6.20168V18.8275C34.5341 18.8156 34.5285 18.823 33.5196 18.8207C33.5177 17.7878 33.76 15.351 31.2897 13.655C29.9139 12.7105 28.1443 12.4641 26.5554 12.995C22.5474 14.3357 18.8524 13.651 15.2591 10.9027C11.8759 8.31466 6.77863 10.5119 6.77863 15.221V18.8207C5.75754 18.823 5.76408 18.8156 5.56518 18.8275V8.37433C5.56492 4.83904 8.27684 1.96289 11.6103 1.96289H14.4667C15.0089 1.96289 15.4482 1.52359 15.4482 0.981443C15.4482 0.439294 15.0089 0 14.4667 0H11.6103C7.1945 0 3.60203 3.7567 3.60203 8.37433V19.5852C2.80706 20.2228 2.29671 21.2014 2.29671 22.2975C2.29671 23.3939 2.80745 24.3729 3.60294 25.0106C3.621 27.3425 5.2027 29.3461 7.35703 29.8415C7.78219 31.2358 8.42903 32.5345 9.2571 33.6956C6.84681 34.5255 4.68449 36.0262 3.0625 38.0228C1.0877 40.4535 0 43.5205 0 46.6581V65.0582C0 66.1289 0.870998 66.9999 1.94182 66.9999H25.7396C26.2817 66.9999 26.721 66.5606 26.721 66.0184C26.721 65.4763 26.2817 65.037 25.7396 65.037H1.96289V46.6581C1.96289 43.9697 2.89447 41.3425 4.58596 39.2604C6.01429 37.5023 7.93019 36.1928 10.0624 35.4949L13.021 47.0927C13.3326 48.314 14.7167 48.9048 15.8139 48.2871L20.149 45.8466L24.484 48.2871C25.5815 48.9049 26.9655 48.3137 27.2771 47.0927L30.2355 35.4948C32.3677 36.1926 34.2836 37.5021 35.712 39.2602C37.4035 41.3423 38.335 43.9696 38.335 46.658V65.037H29.6638C29.1217 65.037 28.6824 65.4763 28.6824 66.0184C28.6824 66.5606 29.1217 66.9999 29.6638 66.9999H38.3562C39.4269 66.9999 40.2979 66.1289 40.2979 65.0582V46.6581C40.2979 43.5203 39.2102 40.4535 37.2354 38.0227C35.6132 36.026 33.451 34.5252 31.0407 33.6954ZM33.4272 27.5144C33.5354 26.5906 33.5173 25.85 33.5193 25.7743C34.6535 25.7726 34.4398 25.7775 34.6289 25.7715C34.4408 26.4935 34.0065 27.1136 33.4272 27.5144ZM34.5244 20.7836C35.3592 20.7836 36.0382 21.4626 36.0382 22.2973C36.0382 23.1321 35.3592 23.8113 34.5244 23.8113H33.5193V20.7834H34.5244V20.7836ZM8.74139 15.221C8.74139 12.1531 11.9565 10.8477 14.0663 12.4617C18.1587 15.5917 22.5699 16.3972 27.1777 14.8567C28.2001 14.5148 29.2944 14.6664 30.1786 15.2735C31.0177 15.8494 31.5564 16.7801 31.5564 17.8952V25.9488C31.5564 32.2388 26.439 37.3564 20.1489 37.3564C13.8588 37.3564 8.74126 32.239 8.74126 25.9488V15.221H8.74139ZM20.1489 42.7576L18.0703 39.1574C18.7479 39.2636 19.442 39.3192 20.1489 39.3192C20.8558 39.3192 21.5499 39.2636 22.2275 39.1574L20.1489 42.7576ZM6.7785 20.7836V23.8114H5.7735C4.93875 23.8114 4.25973 23.1322 4.25973 22.2975C4.25973 21.4627 4.93875 20.7837 5.7735 20.7837H6.7785V20.7836ZM5.66699 25.7715C5.84757 25.7768 5.51309 25.7723 6.7785 25.7743C6.77916 25.8018 6.75403 26.5219 6.87115 27.519C6.28791 27.1183 5.85385 26.4967 5.66699 25.7715ZM14.9071 46.5452L12.4379 36.8656C13.3457 37.5088 14.3371 38.0409 15.3919 38.4439L18.803 44.3519L14.9071 46.5452ZM25.3909 46.5453L21.4951 44.3518L24.9059 38.4438C25.9607 38.0409 26.9521 37.5087 27.8599 36.8655L25.3909 46.5453Z" fill="#00B45D"/>
<path d="M14.4668 23.0253C15.0089 23.0253 15.4482 22.586 15.4482 22.0438V20.6771C15.4482 20.135 15.0089 19.6957 14.4668 19.6957C13.9246 19.6957 13.4854 20.135 13.4854 20.6771V22.0437C13.4854 22.5858 13.9246 23.0253 14.4668 23.0253Z" fill="#00B45D"/>
<path d="M25.8311 23.0253C26.3732 23.0253 26.8125 22.586 26.8125 22.0438V20.6771C26.8125 20.135 26.3732 19.6957 25.8311 19.6957C25.2889 19.6957 24.8496 20.135 24.8496 20.6771V22.0437C24.8496 22.5858 25.289 23.0253 25.8311 23.0253Z" fill="#00B45D"/>
<path d="M17.4699 29.1377C18.3463 29.6802 19.2474 29.9514 20.149 29.9514C21.0502 29.9514 21.9517 29.6801 22.8281 29.1377C23.2889 28.8524 23.4313 28.2476 23.146 27.7867C22.8606 27.3257 22.2558 27.1833 21.7951 27.4687C20.672 28.1638 19.6259 28.1637 18.5032 27.4687C18.0425 27.1833 17.4374 27.3255 17.1522 27.7867C16.8666 28.2475 17.0089 28.8524 17.4699 29.1377Z" fill="#00B45D"/>
<path d="M34.3643 51.49C34.3643 50.9478 33.925 50.5085 33.3828 50.5085H27.7012C27.159 50.5085 26.7197 50.9478 26.7197 51.49C26.7197 52.0321 27.159 52.4714 27.7012 52.4714H33.3828C33.925 52.4714 34.3643 52.0321 34.3643 51.49Z" fill="#00B45D"/>
<path d="M64.4647 0H60.4811C59.9389 0 59.4996 0.439295 59.4996 0.981445C59.4996 1.5236 59.9389 1.96289 60.4811 1.96289H64.4647C64.7802 1.96289 65.0369 2.21951 65.0369 2.53501V19.4078C65.0369 19.7233 64.7802 19.9799 64.4647 19.9799H43.186C42.8705 19.9799 42.6138 19.7233 42.6138 19.4078V16.5752C42.6138 16.2245 42.4267 15.9006 42.1231 15.7252L40.8633 14.9978L42.1231 14.2703C42.4267 14.095 42.6138 13.7711 42.6138 13.4204V2.53514C42.6138 2.21964 42.8705 1.96302 43.186 1.96302H56.5569C57.099 1.96302 57.5383 1.52373 57.5383 0.981576C57.5383 0.439426 57.099 0.000130859 56.5569 0.000130859H43.186C41.7881 0.000130859 40.6509 1.1373 40.6509 2.53514V12.8541L38.4097 14.1481C38.1061 14.3235 37.9189 14.6474 37.9189 14.9981C37.9189 15.3488 38.1061 15.6726 38.4097 15.848L40.6509 17.1421V19.4079C40.6509 20.8057 41.7881 21.9429 43.186 21.9429H64.4646C65.8625 21.9429 66.9997 20.8057 66.9997 19.4079V2.53514C66.9998 1.1373 65.8627 0 64.4647 0V0Z" fill="#00B45D"/>
<path d="M54.1611 6.03743C53.5341 5.51857 52.5485 4.96216 51.2046 4.96216C48.9964 4.96216 47.2666 6.86564 47.2666 9.29544C47.2666 13.0673 51.3099 15.664 53.7201 16.876C53.9979 17.0157 54.325 17.0152 54.6018 16.876C57.012 15.664 61.0553 13.0675 61.0553 9.29544C61.0553 6.86564 59.3254 4.96216 57.1173 4.96216C55.7736 4.96216 54.788 5.51857 54.1611 6.03743ZM59.0925 9.29557C59.0925 11.1946 57.3022 13.2194 54.1609 14.8941C51.0198 13.2194 49.2295 11.1945 49.2295 9.29557C49.2295 8.14649 49.9217 6.92518 51.2046 6.92518C52.5804 6.92518 53.3065 7.94209 53.3462 7.99914C53.5284 8.27041 53.8339 8.43347 54.1611 8.43347C54.4911 8.43347 54.7991 8.2674 54.9808 7.99181C54.9878 7.98122 55.7222 6.92518 57.1176 6.92518C58.4002 6.92505 59.0925 8.14636 59.0925 9.29557Z" fill="#00B45D"/>
<path d="M21.1309 50.3555C21.1309 49.8133 20.6916 49.374 20.1494 49.374C19.6073 49.374 19.168 49.8133 19.168 50.3555V51.5815C19.168 52.1236 19.6073 52.5629 20.1494 52.5629C20.6916 52.5629 21.1309 52.1236 21.1309 51.5815V50.3555Z" fill="#00B45D"/>
<path d="M21.1309 55.988C21.1309 55.4459 20.6916 55.0066 20.1494 55.0066C19.6073 55.0066 19.168 55.4459 19.168 55.988V57.2141C19.168 57.7562 19.6073 58.1955 20.1494 58.1955C20.6916 58.1955 21.1309 57.7562 21.1309 57.2141V55.988Z" fill="#00B45D"/>
<path d="M20.1494 60.6392C19.6073 60.6392 19.168 61.0785 19.168 61.6206V62.8468C19.168 63.3889 19.6073 63.8282 20.1494 63.8282C20.6916 63.8282 21.1309 63.3889 21.1309 62.8468V61.6206C21.1309 61.0786 20.6914 60.6392 20.1494 60.6392Z" fill="#00B45D"/>
</svg>
