<svg width="62" height="64" viewBox="0 0 62 64" fill="none" xmlns="http://www.w3.org/2000/svg">
<path d="M60.6236 0H23.5154C22.769 0 22.1619 0.607148 22.1619 1.35352V4.38268H19.1327C18.3863 4.38268 17.7792 4.98983 17.7792 5.7362V17.6034L3.58092 24.6993C2.81148 25.0839 2.33349 25.857 2.33349 26.7172V34.1569C2.33349 36.681 2.63204 38.9333 3.20052 40.9756C1.25661 42.6516 0.0224609 45.1293 0.0224609 47.8914C0.0224609 52.9272 4.11949 57.0243 9.15534 57.0243C10.3506 57.0243 11.4918 56.7911 12.539 56.3717V61.5575C12.539 62.1333 12.8791 62.6563 13.4054 62.8899C13.9314 63.1235 14.5477 63.0247 14.9747 62.6385L18.5201 59.4312L22.0657 62.6385C22.3388 62.8856 22.6893 63.0149 23.0442 63.0149C23.244 63.0149 23.4454 62.9739 23.635 62.8898C24.1613 62.656 24.5014 62.1331 24.5014 61.5574V53.9389H31.7732C32.3073 53.9389 32.74 53.506 32.74 52.9721C32.74 52.4382 32.3073 52.0053 31.7732 52.0053H26.4391C28.4881 50.2515 30.199 48.3704 31.5235 46.2473H48.4684C49.0025 46.2473 49.4352 45.8144 49.4352 45.2805C49.4352 44.7466 49.0025 44.3137 48.4684 44.3137H32.5871C32.9681 43.5206 33.3006 42.694 33.5818 41.8287H36.8006C37.3346 41.8287 37.7674 41.3958 37.7674 40.8619C37.7674 40.3279 37.3346 39.8951 36.8006 39.8951H34.1115C34.2894 39.0993 34.4275 38.2715 34.5261 37.41H48.4683C49.0023 37.41 49.4351 36.9771 49.4351 36.4432C49.4351 35.9093 49.0023 35.4764 48.4683 35.4764H34.6753C34.694 35.0441 34.7064 34.606 34.7064 34.1568V32.9914H48.4683C49.0023 32.9914 49.4351 32.5585 49.4351 32.0246C49.4351 31.4906 49.0023 31.0578 48.4683 31.0578H34.7065V28.5727H39.6365C40.1706 28.5727 40.6033 28.1398 40.6033 27.6059C40.6033 27.072 40.1706 26.6391 39.6365 26.6391H34.7038C34.6758 25.8105 34.205 25.072 33.4591 24.6992L32.3684 24.1541H48.4683C49.0023 24.1541 49.4351 23.7212 49.4351 23.1873C49.4351 22.6533 49.0023 22.2205 48.4683 22.2205H28.4994L19.7126 17.829V6.31628H55.6608V13.5352C55.6608 14.0691 56.0936 14.502 56.6276 14.502C57.1617 14.502 57.5944 14.0691 57.5944 13.5352V5.7362C57.5944 4.98983 56.9873 4.38268 56.2409 4.38268H24.0954V1.93359H60.0437V47.6227H57.5944V18.0469C57.5944 17.5129 57.1617 17.0801 56.6276 17.0801C56.0936 17.0801 55.6608 17.5129 55.6608 18.0469V52.0054H36.2849C35.7509 52.0054 35.3181 52.4383 35.3181 52.9722C35.3181 53.5061 35.7509 53.939 36.2849 53.939H56.2409C56.9873 53.939 57.5944 53.3319 57.5944 52.5855V49.5563H60.6236C61.37 49.5563 61.9771 48.9492 61.9771 48.2028V1.35352C61.9771 0.607148 61.37 0 60.6236 0V0ZM1.95605 47.8914C1.95605 43.9217 5.18567 40.6921 9.15534 40.6921C13.125 40.6921 16.3546 43.9217 16.3546 47.8914C16.3546 51.861 13.125 55.0907 9.15534 55.0907C5.18567 55.0907 1.95605 51.861 1.95605 47.8914ZM19.4979 57.7085C18.9404 57.2042 18.0994 57.2042 17.5421 57.7085L14.4725 60.4854V55.3098C16.7807 53.6507 18.2881 50.9447 18.2881 47.8915C18.2881 47.0581 18.1738 46.2514 17.9636 45.4838C18.148 45.4944 18.3331 45.5017 18.52 45.5017C19.9616 45.5017 21.3308 45.1896 22.5675 44.6334V60.4854L19.4979 57.7085ZM32.7729 26.7172V34.1569C32.7729 39.2481 31.5036 43.2716 28.7785 46.8193C27.6409 48.3001 26.2604 49.6954 24.5011 51.1183V43.485C26.8828 41.6745 28.4241 38.8132 28.4241 35.5975C28.4241 34.0071 28.0357 32.4233 27.3008 31.0172C27.0536 30.5439 26.4694 30.3609 25.9962 30.6081C25.523 30.8554 25.3398 31.4396 25.5871 31.9128C26.1866 33.0598 26.4905 34.2996 26.4905 35.5976C26.4905 39.9925 22.9151 43.5681 18.52 43.5681C18.0454 43.5681 17.5805 43.5255 17.1286 43.4453C15.9065 41.2625 13.8153 39.6308 11.326 39.0215C10.8293 37.9835 10.5495 36.823 10.5495 35.5976C10.5495 31.2027 14.1249 27.6271 18.52 27.6271C20.0746 27.6271 21.5823 28.0766 22.8804 28.9268C23.3266 29.2194 23.9262 29.0947 24.2188 28.6479C24.5114 28.2012 24.3865 27.6019 23.9399 27.3094C22.3262 26.2523 20.452 25.6935 18.52 25.6935C13.0589 25.6935 8.61587 30.1363 8.61587 35.5976C8.61587 36.703 8.7993 37.7659 9.13562 38.7591C7.60614 38.7624 6.16459 39.1447 4.89782 39.8153C4.4754 38.0754 4.26709 36.2036 4.26709 34.1571V26.7174C4.26709 26.5945 4.33528 26.484 4.44523 26.4291L18.5199 19.3948L32.5946 26.4291C32.7046 26.4839 32.7729 26.5944 32.7729 26.7172Z" fill="#00B45D"/>
</svg>
