<svg width="64" height="66" viewBox="0 0 64 66" fill="none" xmlns="http://www.w3.org/2000/svg">
<path d="M61.8148 12.4987H57.1556C57.172 12.3891 57.1832 12.2777 57.1832 12.1635V4.87266C57.1832 3.62162 56.1654 2.60378 54.9145 2.60378H45.0195C43.7685 2.60378 42.7508 3.62162 42.7508 4.87266V12.1636C42.7508 12.2778 42.762 12.3892 42.7783 12.4989H40.4905C40.5069 12.3892 40.5181 12.2779 40.5181 12.1637V5.39344C40.5181 4.14253 39.5003 3.12469 38.2494 3.12469H31.9033C31.3694 3.12469 30.9365 3.55743 30.9365 4.09148C30.9365 4.62554 31.3694 5.05828 31.9033 5.05828H38.2494C38.4342 5.05828 38.5845 5.20859 38.5845 5.39344V12.1636C38.5845 12.3484 38.4341 12.4987 38.2494 12.4987H25.7506C25.5658 12.4987 25.4154 12.3484 25.4154 12.1636V5.39344C25.4154 5.20859 25.5659 5.05828 25.7506 5.05828H27.3916C27.9255 5.05828 28.3584 4.62554 28.3584 4.09148C28.3584 3.55743 27.9255 3.12469 27.3916 3.12469H25.7506C24.4996 3.12469 23.4818 4.14253 23.4818 5.39344V12.1636C23.4818 12.2777 23.4931 12.3891 23.5094 12.4987H21.2216C21.238 12.3891 21.2492 12.2777 21.2492 12.1635V2.26875C21.2492 1.01784 20.2313 0 18.9804 0H9.0856C7.83456 0 6.81685 1.01784 6.81685 2.26875V12.1636C6.81685 12.2778 6.82806 12.3892 6.84443 12.4989H2.18512C1.07768 12.4989 0.176758 13.3998 0.176758 14.5072V16.5904C0.176758 17.6978 1.07768 18.5987 2.18512 18.5987H2.6506V44.8027C2.6506 45.3367 3.08347 45.7695 3.61739 45.7695C4.15132 45.7695 4.58419 45.3367 4.58419 44.8027V18.5986H6.81685V63.9916C6.81685 64.0329 6.78333 64.0664 6.74208 64.0664H4.65896C4.61771 64.0664 4.58419 64.0329 4.58419 63.9916V49.3144C4.58419 48.7803 4.15132 48.3476 3.61739 48.3476C3.08347 48.3476 2.6506 48.7803 2.6506 49.3144V63.9916C2.6506 65.0991 3.55152 66 4.65896 66H6.74208C7.84952 66 8.75044 65.0991 8.75044 63.9916V60.5216H55.2495V63.9916C55.2495 65.0991 56.1504 66 57.2579 66H59.341C60.4484 66 61.3494 65.0991 61.3494 63.9916V28.4793C61.3494 27.9452 60.9165 27.5125 60.3826 27.5125C59.8486 27.5125 59.4158 27.9452 59.4158 28.4793V63.9916C59.4158 64.0329 59.3822 64.0664 59.341 64.0664H57.2579C57.2166 64.0664 57.1831 64.0329 57.1831 63.9916V18.5986H59.4158V23.9674C59.4158 24.5015 59.8486 24.9342 60.3826 24.9342C60.9165 24.9342 61.3494 24.5015 61.3494 23.9674V18.5986H61.8148C62.9223 18.5986 63.8232 17.6977 63.8232 16.5902V14.5071C63.8232 13.3997 62.9223 12.4987 61.8148 12.4987ZM44.6844 4.87266C44.6844 4.6878 44.8348 4.53737 45.0195 4.53737H54.9144C55.0992 4.53737 55.2495 4.6878 55.2495 4.87266V12.1636C55.2495 12.3484 55.0991 12.4989 54.9144 12.4989H45.0195C44.8347 12.4989 44.6844 12.3484 44.6844 12.1636V4.87266ZM12.9166 1.93359H15.1492V4.50901L14.3724 4.21768C14.1535 4.13557 13.9124 4.13557 13.6934 4.21768L12.9166 4.50901V1.93359ZM8.75031 2.26875C8.75031 2.0839 8.90075 1.93359 9.08547 1.93359H10.983V5.90416C10.983 6.22127 11.1384 6.51827 11.3991 6.69874C11.6597 6.87934 11.9922 6.92072 12.2893 6.80934L14.0329 6.1554L15.7765 6.80934C15.8866 6.85059 16.0015 6.87096 16.1159 6.87096C16.31 6.87096 16.5026 6.81244 16.6666 6.69874C16.9272 6.51827 17.0827 6.22127 17.0827 5.90416V1.93359H18.9804C19.1653 1.93359 19.3156 2.0839 19.3156 2.26875V12.1636C19.3156 12.3484 19.1652 12.4989 18.9804 12.4989H9.0856C8.90075 12.4989 8.75044 12.3484 8.75044 12.1636V2.26875H8.75031ZM55.2495 58.588H8.75044V56.3554H55.2495V58.588ZM8.75044 54.098V44.2007C8.75109 44.0165 8.90113 43.8667 9.08547 43.8667H16.3765C16.5614 43.8667 16.7117 44.0171 16.7117 44.202V54.0968C16.7117 54.2547 16.6016 54.3864 16.4545 54.4218H9.00761C8.86079 54.3864 8.75109 54.2552 8.75044 54.098ZM25.4154 54.0967V44.1916C25.4154 44.0068 25.5659 43.8565 25.7506 43.8565H38.2494C38.4342 43.8565 38.5845 44.0068 38.5845 44.1916V54.0967C38.5845 54.2546 38.4744 54.3863 38.3272 54.4216H25.6726C25.5255 54.3863 25.4154 54.2546 25.4154 54.0967ZM55.2495 54.098C55.2489 54.2552 55.1392 54.3864 54.9923 54.4218H44.9417C44.7944 54.3864 44.6844 54.2546 44.6844 54.0968V44.202C44.6844 44.0171 44.8348 43.8667 45.0195 43.8667H46.917V47.8372C46.917 48.1544 47.0725 48.4514 47.3331 48.6318C47.5936 48.8123 47.9263 48.8538 48.2232 48.7424L49.9669 48.0886L51.7106 48.7424C51.8207 48.7837 51.9357 48.804 52.0501 48.804C52.2442 48.804 52.4368 48.7455 52.6007 48.6318C52.8614 48.4514 53.0169 48.1544 53.0169 47.8372V43.8667H54.9144C55.0987 43.8667 55.2487 44.0165 55.2494 44.2007V54.098H55.2495ZM48.8506 46.4421V43.8667H51.0833V46.4421L50.3063 46.1508C50.0875 46.0686 49.8464 46.0686 49.6274 46.1508L48.8506 46.4421ZM55.2495 41.9607C55.1398 41.9443 55.0286 41.9331 54.9145 41.9331H45.0195C43.7685 41.9331 42.7508 42.9509 42.7508 44.202V54.0968C42.7508 54.2074 42.7615 54.3154 42.7768 54.4218H40.4921C40.5074 54.3153 40.5181 54.2074 40.5181 54.0968V44.1916C40.5181 42.9407 39.5003 41.9229 38.2494 41.9229H25.7506C24.4996 41.9229 23.4818 42.9407 23.4818 44.1916V54.0967C23.4818 54.2073 23.4925 54.3153 23.5079 54.4216H18.6192C18.6346 54.3152 18.6453 54.2073 18.6453 54.0967V44.2018C18.6453 42.9508 17.6276 41.9329 16.3765 41.9329H9.08547C8.97139 41.9329 8.86001 41.9442 8.75044 41.9605V39.6902H55.2495V41.9607ZM55.2495 37.7566H8.75044V35.524H55.2495V37.7566ZM11.3991 27.8004C11.6597 27.981 11.9924 28.0224 12.2892 27.911L14.0329 27.2572L15.7766 27.911C15.8867 27.9523 16.0017 27.9727 16.116 27.9727C16.3102 27.9727 16.5027 27.9141 16.6667 27.8004C16.9274 27.62 17.0828 27.323 17.0828 27.0059V23.0353H18.9804C19.1653 23.0353 19.3156 23.1857 19.3156 23.3706V33.2654C19.3156 33.4232 19.2058 33.5549 19.0587 33.5904H9.00722C8.86066 33.5549 8.75109 33.4237 8.75044 33.2666V23.3693C8.75109 23.1851 8.90113 23.0353 9.08547 23.0353H10.983V27.0059C10.983 27.323 11.1386 27.62 11.3991 27.8004ZM12.9166 25.6108V23.0354H15.1492V25.6108L14.3723 25.3195C14.1534 25.2374 13.9124 25.2374 13.6934 25.3195L12.9166 25.6108ZM25.4154 33.2654V26.4951C25.4154 26.3103 25.5659 26.16 25.7506 26.16H38.2494C38.4342 26.16 38.5845 26.3103 38.5845 26.4951V33.2654C38.5845 33.4232 38.4747 33.5549 38.3276 33.5904H25.6722C25.5253 33.5549 25.4154 33.4231 25.4154 33.2654ZM55.2495 33.2666C55.2489 33.4237 55.1393 33.5549 54.9927 33.5904H44.9413C44.7943 33.5549 44.6844 33.4231 44.6844 33.2654V23.3706C44.6844 23.1857 44.8348 23.0353 45.0195 23.0353H54.9144C55.0987 23.0353 55.2487 23.1851 55.2494 23.3693V33.2666H55.2495ZM55.2495 21.1293C55.1398 21.1129 55.0286 21.1017 54.9145 21.1017H45.0195C43.7685 21.1017 42.7508 22.1195 42.7508 23.3706V33.2654C42.7508 33.376 42.7615 33.484 42.7768 33.5904H40.4921C40.5074 33.4839 40.5181 33.376 40.5181 33.2654V26.4951C40.5181 25.2442 39.5003 24.2264 38.2494 24.2264H25.7506C24.4996 24.2264 23.4818 25.2442 23.4818 26.4951V33.2654C23.4818 33.376 23.4925 33.484 23.5079 33.5904H21.2232C21.2385 33.4839 21.2492 33.376 21.2492 33.2654V23.3706C21.2492 22.1195 20.2313 21.1017 18.9804 21.1017H16.2483C16.205 21.0958 16.161 21.0916 16.1161 21.0916C16.0713 21.0916 16.0273 21.0958 15.984 21.1017H12.082C12.0387 21.0958 11.9948 21.0916 11.9499 21.0916C11.905 21.0916 11.8611 21.0958 11.8178 21.1017H9.08547C8.97139 21.1017 8.86001 21.1129 8.75044 21.1293V18.5986H55.2495V21.1293ZM61.8896 16.5902C61.8896 16.6315 61.8561 16.665 61.8148 16.665H2.18512C2.14387 16.665 2.11035 16.6315 2.11035 16.5902V14.5071C2.11035 14.4659 2.14387 14.4323 2.18512 14.4323H61.8148C61.8561 14.4323 61.8896 14.4659 61.8896 14.5071V16.5902Z" fill="#00B45D"/>
</svg>
