<svg width="26" height="16" viewBox="0 0 26 16" fill="none" xmlns="http://www.w3.org/2000/svg">
<path fill-rule="evenodd" clip-rule="evenodd" d="M22.3767 9.99866C23.2392 10.8407 24.1494 11.6329 24.923 12.5599C25.2647 12.9718 25.5882 13.3969 25.8357 13.8749C26.1863 14.5545 25.8687 15.3023 25.2594 15.3429L21.4716 15.3411C20.4947 15.4222 19.7154 15.0289 19.0601 14.361C18.5356 13.8268 18.05 13.2583 17.5457 12.7061C17.339 12.4804 17.1226 12.2681 16.8641 12.1002C16.3471 11.7646 15.8982 11.8673 15.6027 12.4066C15.3018 12.9551 15.2335 13.5625 15.204 14.1738C15.1634 15.0657 14.8938 15.3002 13.9979 15.3411C12.0831 15.4314 10.266 15.1417 8.57789 14.1758C7.08961 13.3243 5.93552 12.1222 4.93101 10.7613C2.9752 8.11128 1.47744 5.19939 0.131309 2.20592C-0.171694 1.53149 0.0498986 1.16946 0.794037 1.15664C2.02971 1.13264 3.26522 1.13435 4.50234 1.15493C5.00456 1.16228 5.33703 1.45033 5.53095 1.92479C6.19948 3.56862 7.01752 5.13259 8.04433 6.58225C8.31777 6.9682 8.5966 7.35415 8.99366 7.6258C9.43291 7.92659 9.76735 7.8269 9.974 7.33758C10.1051 7.02732 10.1625 6.69313 10.1921 6.36083C10.29 5.21758 10.3029 4.0763 10.1312 2.93707C10.0258 2.22608 9.62529 1.76581 8.91583 1.63126C8.5538 1.56267 8.60771 1.42795 8.783 1.22131C9.08745 0.864916 9.3738 0.643066 9.94461 0.643066H14.2253C14.8993 0.776073 15.0489 1.07882 15.1412 1.75693L15.1449 6.51195C15.1375 6.77446 15.276 7.55345 15.7488 7.7272C16.1273 7.8509 16.3767 7.54815 16.6038 7.30819C17.6287 6.22039 18.3602 4.93483 19.0137 3.60365C19.3037 3.01831 19.5531 2.41043 19.7947 1.80305C19.9738 1.35235 20.2547 1.13059 20.7624 1.14041L24.8824 1.14408C25.0046 1.14408 25.1282 1.14588 25.2465 1.16612C25.9407 1.28444 26.131 1.58309 25.9165 2.26102C25.5787 3.32465 24.9213 4.21102 24.2786 5.10149C23.5915 6.05219 22.8567 6.97034 22.1754 7.92667C21.5494 8.79997 21.5991 9.24017 22.3767 9.99866Z" fill="white"/>
</svg>
