<svg width="19" height="18" viewBox="0 0 19 18" fill="none" xmlns="http://www.w3.org/2000/svg">
<path d="M16.1768 2.61392C14.3919 0.929306 12.0175 0.000961305 9.49043 0C6.96902 0 4.59084 0.927521 2.79422 2.61172C0.994415 4.29881 0.00231934 6.54085 0 8.91664V8.91939V8.92104C0.000289917 10.359 0.399071 11.8096 1.15604 13.1337L0.0259476 18L5.22169 16.8804C6.53763 17.5086 8.00591 17.8399 9.48681 17.8404H9.49058C12.0116 17.8404 14.3897 16.9128 16.1866 15.2284C17.988 13.54 18.9806 11.3008 18.9817 8.92351C18.9825 6.56296 17.9865 4.32216 16.1768 2.61392ZM9.49043 16.4355H9.4871C8.15739 16.435 6.83987 16.1187 5.67715 15.5207L5.43145 15.3943L1.97651 16.1388L2.72696 12.9077L2.58229 12.6714C1.86301 11.4962 1.48293 10.199 1.48293 8.91953C1.48568 4.77809 5.07746 1.40488 9.49014 1.40488C11.6219 1.4057 13.6249 2.18861 15.1302 3.60915C16.6582 5.05165 17.4994 6.93883 17.4987 8.9231C17.4969 13.0655 13.9044 16.4355 9.49043 16.4355Z" fill="white"/>
</svg>
